G75*
%MOIN*%
%OFA0B0*%
%FSLAX25Y25*%
%IPPOS*%
%LPD*%
%AMOC8*
5,1,8,0,0,1.08239X$1,22.5*
%
%ADD10C,0.06299*%
%ADD11C,0.04800*%
%ADD12C,0.01000*%
D10*
X0042642Y0009374D03*
X0042642Y0017248D03*
X0042642Y0025122D03*
X0042642Y0032996D03*
X0042642Y0048744D03*
X0042642Y0056618D03*
X0042642Y0064492D03*
X0042642Y0072366D03*
X0042839Y0092051D03*
X0042839Y0099925D03*
D11*
X0029217Y0086577D02*
X0029217Y0081777D01*
X0029217Y0066892D02*
X0029217Y0062092D01*
X0029217Y0047207D02*
X0029217Y0042407D01*
X0029217Y0027522D02*
X0029217Y0022722D01*
X0019217Y0022722D02*
X0019217Y0027522D01*
X0019217Y0042407D02*
X0019217Y0047207D01*
X0019217Y0062092D02*
X0019217Y0066892D01*
X0019217Y0081777D02*
X0019217Y0086577D01*
X0009217Y0086577D02*
X0009217Y0081777D01*
X0009217Y0066892D02*
X0009217Y0062092D01*
X0009217Y0047207D02*
X0009217Y0042407D01*
X0009217Y0027522D02*
X0009217Y0022722D01*
D12*
X0003968Y0003968D02*
X0003968Y0105331D01*
X0015007Y0105331D01*
X0013452Y0103777D01*
X0012417Y0101278D01*
X0012417Y0098573D01*
X0013452Y0096074D01*
X0015365Y0094161D01*
X0017864Y0093126D01*
X0020569Y0093126D01*
X0023068Y0094161D01*
X0024981Y0096074D01*
X0026016Y0098573D01*
X0026016Y0101278D01*
X0024981Y0103777D01*
X0023427Y0105331D01*
X0052181Y0105331D01*
X0052181Y0003968D01*
X0023427Y0003968D01*
X0024981Y0005523D01*
X0026016Y0008022D01*
X0026016Y0010726D01*
X0024981Y0013225D01*
X0023068Y0015138D01*
X0020569Y0016173D01*
X0017864Y0016173D01*
X0015365Y0015138D01*
X0013452Y0013225D01*
X0012417Y0010726D01*
X0012417Y0008022D01*
X0013452Y0005523D01*
X0015007Y0003968D01*
X0003968Y0003968D01*
X0003968Y0004496D02*
X0014479Y0004496D01*
X0013481Y0005494D02*
X0003968Y0005494D01*
X0003968Y0006493D02*
X0013051Y0006493D01*
X0012637Y0007491D02*
X0003968Y0007491D01*
X0003968Y0008490D02*
X0012417Y0008490D01*
X0012417Y0009488D02*
X0003968Y0009488D01*
X0003968Y0010487D02*
X0012417Y0010487D01*
X0012732Y0011485D02*
X0003968Y0011485D01*
X0003968Y0012484D02*
X0013145Y0012484D01*
X0013709Y0013482D02*
X0003968Y0013482D01*
X0003968Y0014481D02*
X0014708Y0014481D01*
X0016188Y0015479D02*
X0003968Y0015479D01*
X0003968Y0016478D02*
X0037992Y0016478D01*
X0037992Y0016323D02*
X0038700Y0014614D01*
X0040003Y0013311D01*
X0038700Y0012008D01*
X0037992Y0010299D01*
X0037992Y0008449D01*
X0038700Y0006740D01*
X0040008Y0005432D01*
X0041717Y0004724D01*
X0043567Y0004724D01*
X0045276Y0005432D01*
X0046583Y0006740D01*
X0047291Y0008449D01*
X0047291Y0010299D01*
X0046583Y0012008D01*
X0045280Y0013311D01*
X0046583Y0014614D01*
X0047291Y0016323D01*
X0047291Y0018173D01*
X0046583Y0019882D01*
X0045280Y0021185D01*
X0046583Y0022488D01*
X0047291Y0024197D01*
X0047291Y0026047D01*
X0046583Y0027756D01*
X0045280Y0029059D01*
X0046583Y0030362D01*
X0047291Y0032071D01*
X0047291Y0033921D01*
X0046583Y0035630D01*
X0045276Y0036938D01*
X0044500Y0037259D01*
X0044500Y0040328D01*
X0043328Y0041500D01*
X0040039Y0044790D01*
X0041717Y0044094D01*
X0043567Y0044094D01*
X0045276Y0044802D01*
X0046583Y0046110D01*
X0047291Y0047819D01*
X0047291Y0049669D01*
X0046583Y0051378D01*
X0045280Y0052681D01*
X0046583Y0053984D01*
X0047291Y0055693D01*
X0047291Y0057543D01*
X0046583Y0059252D01*
X0045280Y0060555D01*
X0046583Y0061858D01*
X0047291Y0063567D01*
X0047291Y0065417D01*
X0046583Y0067126D01*
X0045280Y0068429D01*
X0046583Y0069732D01*
X0047291Y0071441D01*
X0047291Y0073291D01*
X0046583Y0075000D01*
X0045276Y0076308D01*
X0043567Y0077016D01*
X0041717Y0077016D01*
X0040008Y0076308D01*
X0038700Y0075000D01*
X0037992Y0073291D01*
X0037992Y0071441D01*
X0038700Y0069732D01*
X0040003Y0068429D01*
X0038700Y0067126D01*
X0037992Y0065417D01*
X0037992Y0063567D01*
X0038700Y0061858D01*
X0040003Y0060555D01*
X0038700Y0059252D01*
X0037992Y0057543D01*
X0037992Y0055693D01*
X0038700Y0053984D01*
X0040003Y0052681D01*
X0038700Y0051378D01*
X0037992Y0049669D01*
X0037992Y0047819D01*
X0038687Y0046141D01*
X0026500Y0058328D01*
X0026500Y0059293D01*
X0027007Y0058786D01*
X0028441Y0058192D01*
X0029992Y0058192D01*
X0031426Y0058786D01*
X0032523Y0059883D01*
X0033117Y0061316D01*
X0033117Y0067668D01*
X0032523Y0069101D01*
X0031426Y0070198D01*
X0029992Y0070792D01*
X0028441Y0070792D01*
X0027007Y0070198D01*
X0026319Y0069510D01*
X0025328Y0070500D01*
X0017605Y0078223D01*
X0018079Y0078027D01*
X0018832Y0077877D01*
X0018917Y0077877D01*
X0018917Y0083877D01*
X0019517Y0083877D01*
X0019517Y0084477D01*
X0023117Y0084477D01*
X0023117Y0086961D01*
X0022967Y0087715D01*
X0022673Y0088425D01*
X0022246Y0089063D01*
X0021703Y0089606D01*
X0021064Y0090033D01*
X0020354Y0090327D01*
X0019601Y0090477D01*
X0019517Y0090477D01*
X0019517Y0084477D01*
X0018917Y0084477D01*
X0018917Y0090477D01*
X0018832Y0090477D01*
X0018079Y0090327D01*
X0017369Y0090033D01*
X0016730Y0089606D01*
X0016187Y0089063D01*
X0015760Y0088425D01*
X0015466Y0087715D01*
X0015317Y0086961D01*
X0015317Y0084477D01*
X0018916Y0084477D01*
X0018916Y0083877D01*
X0015317Y0083877D01*
X0015317Y0081393D01*
X0015466Y0080640D01*
X0015663Y0080166D01*
X0013117Y0082712D01*
X0013117Y0087353D01*
X0012523Y0088786D01*
X0011426Y0089883D01*
X0009992Y0090477D01*
X0008441Y0090477D01*
X0007007Y0089883D01*
X0005910Y0088786D01*
X0005317Y0087353D01*
X0005317Y0081001D01*
X0005910Y0079568D01*
X0007007Y0078471D01*
X0008441Y0077877D01*
X0009992Y0077877D01*
X0011426Y0078471D01*
X0011563Y0078608D01*
X0019517Y0070655D01*
X0019517Y0064792D01*
X0018917Y0064792D01*
X0018917Y0070792D01*
X0018832Y0070792D01*
X0018079Y0070642D01*
X0017369Y0070348D01*
X0016730Y0069921D01*
X0016187Y0069378D01*
X0015760Y0068739D01*
X0015466Y0068030D01*
X0015317Y0067276D01*
X0015317Y0064792D01*
X0018916Y0064792D01*
X0018916Y0064192D01*
X0015317Y0064192D01*
X0015317Y0061708D01*
X0015466Y0060955D01*
X0015760Y0060245D01*
X0016116Y0059712D01*
X0013117Y0062712D01*
X0013117Y0067668D01*
X0012523Y0069101D01*
X0011426Y0070198D01*
X0009992Y0070792D01*
X0008441Y0070792D01*
X0007007Y0070198D01*
X0005910Y0069101D01*
X0005317Y0067668D01*
X0005317Y0061316D01*
X0005910Y0059883D01*
X0007007Y0058786D01*
X0008441Y0058192D01*
X0009992Y0058192D01*
X0011397Y0058774D01*
X0019517Y0050655D01*
X0019517Y0045107D01*
X0018917Y0045107D01*
X0018917Y0051107D01*
X0018832Y0051107D01*
X0018079Y0050957D01*
X0017369Y0050663D01*
X0016730Y0050236D01*
X0016187Y0049693D01*
X0015760Y0049054D01*
X0015466Y0048345D01*
X0015317Y0047591D01*
X0015317Y0045107D01*
X0018916Y0045107D01*
X0018916Y0044507D01*
X0015317Y0044507D01*
X0015317Y0043512D01*
X0013117Y0045712D01*
X0013117Y0047983D01*
X0012523Y0049416D01*
X0011426Y0050513D01*
X0009992Y0051107D01*
X0008441Y0051107D01*
X0007007Y0050513D01*
X0005910Y0049416D01*
X0005317Y0047983D01*
X0005317Y0041631D01*
X0005910Y0040198D01*
X0007007Y0039101D01*
X0008441Y0038507D01*
X0009992Y0038507D01*
X0011426Y0039101D01*
X0012523Y0040198D01*
X0012655Y0040517D01*
X0022500Y0030672D01*
X0023672Y0029500D01*
X0025815Y0029500D01*
X0025317Y0028298D01*
X0025317Y0021946D01*
X0025910Y0020513D01*
X0027007Y0019416D01*
X0028441Y0018822D01*
X0029992Y0018822D01*
X0031426Y0019416D01*
X0032523Y0020513D01*
X0033117Y0021946D01*
X0033117Y0027055D01*
X0035500Y0024672D01*
X0035500Y0021672D01*
X0038287Y0018885D01*
X0037992Y0018173D01*
X0037992Y0016323D01*
X0038342Y0015479D02*
X0022245Y0015479D01*
X0023725Y0014481D02*
X0038834Y0014481D01*
X0039832Y0013482D02*
X0024724Y0013482D01*
X0025288Y0012484D02*
X0039176Y0012484D01*
X0038483Y0011485D02*
X0025702Y0011485D01*
X0026016Y0010487D02*
X0038070Y0010487D01*
X0037992Y0009488D02*
X0026016Y0009488D01*
X0026016Y0008490D02*
X0037992Y0008490D01*
X0038389Y0007491D02*
X0025796Y0007491D01*
X0025382Y0006493D02*
X0038948Y0006493D01*
X0039946Y0005494D02*
X0024952Y0005494D01*
X0023954Y0004496D02*
X0052181Y0004496D01*
X0052181Y0005494D02*
X0045337Y0005494D01*
X0046336Y0006493D02*
X0052181Y0006493D01*
X0052181Y0007491D02*
X0046894Y0007491D01*
X0047291Y0008490D02*
X0052181Y0008490D01*
X0052181Y0009488D02*
X0047291Y0009488D01*
X0047214Y0010487D02*
X0052181Y0010487D01*
X0052181Y0011485D02*
X0046800Y0011485D01*
X0046108Y0012484D02*
X0052181Y0012484D01*
X0052181Y0013482D02*
X0045451Y0013482D01*
X0046450Y0014481D02*
X0052181Y0014481D01*
X0052181Y0015479D02*
X0046942Y0015479D01*
X0047291Y0016478D02*
X0052181Y0016478D01*
X0052181Y0017476D02*
X0047291Y0017476D01*
X0047166Y0018475D02*
X0052181Y0018475D01*
X0052181Y0019473D02*
X0046753Y0019473D01*
X0045994Y0020472D02*
X0052181Y0020472D01*
X0052181Y0021470D02*
X0045565Y0021470D01*
X0046564Y0022469D02*
X0052181Y0022469D01*
X0052181Y0023467D02*
X0046989Y0023467D01*
X0047291Y0024466D02*
X0052181Y0024466D01*
X0052181Y0025464D02*
X0047291Y0025464D01*
X0047119Y0026463D02*
X0052181Y0026463D01*
X0052181Y0027461D02*
X0046705Y0027461D01*
X0045879Y0028460D02*
X0052181Y0028460D01*
X0052181Y0029458D02*
X0045680Y0029458D01*
X0046623Y0030457D02*
X0052181Y0030457D01*
X0052181Y0031455D02*
X0047036Y0031455D01*
X0047291Y0032454D02*
X0052181Y0032454D01*
X0052181Y0033452D02*
X0047291Y0033452D01*
X0047072Y0034451D02*
X0052181Y0034451D01*
X0052181Y0035449D02*
X0046658Y0035449D01*
X0045765Y0036448D02*
X0052181Y0036448D01*
X0052181Y0037446D02*
X0044500Y0037446D01*
X0044500Y0038445D02*
X0052181Y0038445D01*
X0052181Y0039443D02*
X0044500Y0039443D01*
X0044386Y0040442D02*
X0052181Y0040442D01*
X0052181Y0041440D02*
X0043388Y0041440D01*
X0042389Y0042439D02*
X0052181Y0042439D01*
X0052181Y0043437D02*
X0041391Y0043437D01*
X0040892Y0044436D02*
X0040392Y0044436D01*
X0038566Y0046433D02*
X0038395Y0046433D01*
X0038153Y0047432D02*
X0037397Y0047432D01*
X0037992Y0048430D02*
X0036398Y0048430D01*
X0035400Y0049429D02*
X0037992Y0049429D01*
X0038306Y0050427D02*
X0034401Y0050427D01*
X0033403Y0051426D02*
X0038748Y0051426D01*
X0039746Y0052424D02*
X0032404Y0052424D01*
X0031406Y0053423D02*
X0039262Y0053423D01*
X0038519Y0054421D02*
X0030407Y0054421D01*
X0029409Y0055420D02*
X0038105Y0055420D01*
X0037992Y0056418D02*
X0028410Y0056418D01*
X0027412Y0057417D02*
X0037992Y0057417D01*
X0038353Y0058415D02*
X0030531Y0058415D01*
X0032053Y0059414D02*
X0038862Y0059414D01*
X0039860Y0060412D02*
X0032742Y0060412D01*
X0033117Y0061411D02*
X0039148Y0061411D01*
X0038472Y0062409D02*
X0033117Y0062409D01*
X0033117Y0063408D02*
X0038058Y0063408D01*
X0037992Y0064406D02*
X0033117Y0064406D01*
X0033117Y0065405D02*
X0037992Y0065405D01*
X0038401Y0066403D02*
X0033117Y0066403D01*
X0033117Y0067402D02*
X0038976Y0067402D01*
X0039974Y0068400D02*
X0032813Y0068400D01*
X0032225Y0069399D02*
X0039034Y0069399D01*
X0038425Y0070397D02*
X0030946Y0070397D01*
X0027488Y0070397D02*
X0025431Y0070397D01*
X0024433Y0071396D02*
X0038011Y0071396D01*
X0037992Y0072394D02*
X0023434Y0072394D01*
X0022436Y0073393D02*
X0038034Y0073393D01*
X0038448Y0074391D02*
X0021437Y0074391D01*
X0020439Y0075390D02*
X0039090Y0075390D01*
X0040202Y0076388D02*
X0019440Y0076388D01*
X0018442Y0077387D02*
X0052181Y0077387D01*
X0052181Y0078385D02*
X0031219Y0078385D01*
X0031426Y0078471D02*
X0032523Y0079568D01*
X0033117Y0081001D01*
X0033117Y0087353D01*
X0032523Y0088786D01*
X0031426Y0089883D01*
X0029992Y0090477D01*
X0028441Y0090477D01*
X0027007Y0089883D01*
X0025910Y0088786D01*
X0025317Y0087353D01*
X0025317Y0081001D01*
X0025910Y0079568D01*
X0027007Y0078471D01*
X0028441Y0077877D01*
X0029992Y0077877D01*
X0031426Y0078471D01*
X0032339Y0079384D02*
X0052181Y0079384D01*
X0052181Y0080382D02*
X0032860Y0080382D01*
X0033117Y0081381D02*
X0052181Y0081381D01*
X0052181Y0082379D02*
X0033117Y0082379D01*
X0033117Y0083378D02*
X0052181Y0083378D01*
X0052181Y0084376D02*
X0033117Y0084376D01*
X0033117Y0085375D02*
X0052181Y0085375D01*
X0052181Y0086373D02*
X0033117Y0086373D01*
X0033109Y0087372D02*
X0052181Y0087372D01*
X0052181Y0088370D02*
X0045683Y0088370D01*
X0045868Y0088505D02*
X0046385Y0089022D01*
X0046815Y0089614D01*
X0047148Y0090266D01*
X0047374Y0090962D01*
X0047488Y0091685D01*
X0047488Y0091862D01*
X0043028Y0091862D01*
X0043028Y0092240D01*
X0047488Y0092240D01*
X0047488Y0092417D01*
X0047374Y0093140D01*
X0047148Y0093836D01*
X0046815Y0094488D01*
X0046385Y0095080D01*
X0045868Y0095598D01*
X0045386Y0095948D01*
X0045472Y0095983D01*
X0046780Y0097291D01*
X0047488Y0099000D01*
X0047488Y0100850D01*
X0046780Y0102559D01*
X0045472Y0103867D01*
X0043763Y0104575D01*
X0041914Y0104575D01*
X0040205Y0103867D01*
X0038897Y0102559D01*
X0038189Y0100850D01*
X0038189Y0099000D01*
X0038897Y0097291D01*
X0040205Y0095983D01*
X0040291Y0095948D01*
X0039810Y0095598D01*
X0039292Y0095080D01*
X0038862Y0094488D01*
X0038530Y0093836D01*
X0038303Y0093140D01*
X0038189Y0092417D01*
X0038189Y0092240D01*
X0042650Y0092240D01*
X0042650Y0091862D01*
X0043028Y0091862D01*
X0043028Y0087402D01*
X0043205Y0087402D01*
X0043927Y0087516D01*
X0044623Y0087742D01*
X0045276Y0088074D01*
X0045868Y0088505D01*
X0046637Y0089369D02*
X0052181Y0089369D01*
X0052181Y0090368D02*
X0047180Y0090368D01*
X0047438Y0091366D02*
X0052181Y0091366D01*
X0052181Y0092365D02*
X0047488Y0092365D01*
X0047301Y0093363D02*
X0052181Y0093363D01*
X0052181Y0094362D02*
X0046880Y0094362D01*
X0046105Y0095360D02*
X0052181Y0095360D01*
X0052181Y0096359D02*
X0045847Y0096359D01*
X0046808Y0097357D02*
X0052181Y0097357D01*
X0052181Y0098356D02*
X0047221Y0098356D01*
X0047488Y0099354D02*
X0052181Y0099354D01*
X0052181Y0100353D02*
X0047488Y0100353D01*
X0047281Y0101351D02*
X0052181Y0101351D01*
X0052181Y0102350D02*
X0046867Y0102350D01*
X0045991Y0103348D02*
X0052181Y0103348D01*
X0052181Y0104347D02*
X0044314Y0104347D01*
X0041363Y0104347D02*
X0024411Y0104347D01*
X0025158Y0103348D02*
X0039686Y0103348D01*
X0038810Y0102350D02*
X0025572Y0102350D01*
X0025985Y0101351D02*
X0038397Y0101351D01*
X0038189Y0100353D02*
X0026016Y0100353D01*
X0026016Y0099354D02*
X0038189Y0099354D01*
X0038456Y0098356D02*
X0025926Y0098356D01*
X0025512Y0097357D02*
X0038870Y0097357D01*
X0039830Y0096359D02*
X0025099Y0096359D01*
X0024267Y0095360D02*
X0039572Y0095360D01*
X0038797Y0094362D02*
X0023268Y0094362D01*
X0021141Y0093363D02*
X0038376Y0093363D01*
X0038189Y0092365D02*
X0003968Y0092365D01*
X0003968Y0093363D02*
X0017292Y0093363D01*
X0015165Y0094362D02*
X0003968Y0094362D01*
X0003968Y0095360D02*
X0014166Y0095360D01*
X0013334Y0096359D02*
X0003968Y0096359D01*
X0003968Y0097357D02*
X0012921Y0097357D01*
X0012507Y0098356D02*
X0003968Y0098356D01*
X0003968Y0099354D02*
X0012417Y0099354D01*
X0012417Y0100353D02*
X0003968Y0100353D01*
X0003968Y0101351D02*
X0012448Y0101351D01*
X0012861Y0102350D02*
X0003968Y0102350D01*
X0003968Y0103348D02*
X0013275Y0103348D01*
X0014022Y0104347D02*
X0003968Y0104347D01*
X0003968Y0091366D02*
X0038240Y0091366D01*
X0038189Y0091685D02*
X0038303Y0090962D01*
X0038530Y0090266D01*
X0038862Y0089614D01*
X0039292Y0089022D01*
X0039810Y0088505D01*
X0040402Y0088074D01*
X0041054Y0087742D01*
X0041750Y0087516D01*
X0042473Y0087402D01*
X0042650Y0087402D01*
X0042650Y0091862D01*
X0038189Y0091862D01*
X0038189Y0091685D01*
X0038497Y0090368D02*
X0030257Y0090368D01*
X0031940Y0089369D02*
X0039040Y0089369D01*
X0039994Y0088370D02*
X0032695Y0088370D01*
X0028176Y0090368D02*
X0020152Y0090368D01*
X0019517Y0090368D02*
X0018917Y0090368D01*
X0018281Y0090368D02*
X0010257Y0090368D01*
X0011940Y0089369D02*
X0016493Y0089369D01*
X0015738Y0088370D02*
X0012695Y0088370D01*
X0013109Y0087372D02*
X0015398Y0087372D01*
X0015317Y0086373D02*
X0013117Y0086373D01*
X0013117Y0085375D02*
X0015317Y0085375D01*
X0015317Y0083378D02*
X0013117Y0083378D01*
X0013117Y0084376D02*
X0018916Y0084376D01*
X0019517Y0084376D02*
X0025317Y0084376D01*
X0025317Y0083378D02*
X0023117Y0083378D01*
X0023117Y0083877D02*
X0019517Y0083877D01*
X0019517Y0077877D01*
X0019601Y0077877D01*
X0020354Y0078027D01*
X0021064Y0078321D01*
X0021703Y0078748D01*
X0022246Y0079291D01*
X0022673Y0079930D01*
X0022967Y0080640D01*
X0023117Y0081393D01*
X0023117Y0083877D01*
X0023117Y0082379D02*
X0025317Y0082379D01*
X0025317Y0081381D02*
X0023114Y0081381D01*
X0022860Y0080382D02*
X0025573Y0080382D01*
X0026094Y0079384D02*
X0022308Y0079384D01*
X0021160Y0078385D02*
X0027214Y0078385D01*
X0025317Y0085375D02*
X0023117Y0085375D01*
X0023117Y0086373D02*
X0025317Y0086373D01*
X0025324Y0087372D02*
X0023035Y0087372D01*
X0022695Y0088370D02*
X0025738Y0088370D01*
X0026493Y0089369D02*
X0021940Y0089369D01*
X0019517Y0089369D02*
X0018917Y0089369D01*
X0018917Y0088370D02*
X0019517Y0088370D01*
X0019517Y0087372D02*
X0018917Y0087372D01*
X0018917Y0086373D02*
X0019517Y0086373D01*
X0019517Y0085375D02*
X0018917Y0085375D01*
X0018917Y0083378D02*
X0019517Y0083378D01*
X0019517Y0082379D02*
X0018917Y0082379D01*
X0018917Y0081381D02*
X0019517Y0081381D01*
X0019517Y0080382D02*
X0018917Y0080382D01*
X0018917Y0079384D02*
X0019517Y0079384D01*
X0019517Y0078385D02*
X0018917Y0078385D01*
X0015780Y0074391D02*
X0003968Y0074391D01*
X0003968Y0073393D02*
X0016779Y0073393D01*
X0017777Y0072394D02*
X0003968Y0072394D01*
X0003968Y0071396D02*
X0018776Y0071396D01*
X0018917Y0070397D02*
X0019517Y0070397D01*
X0019517Y0069399D02*
X0018917Y0069399D01*
X0018917Y0068400D02*
X0019517Y0068400D01*
X0019517Y0067402D02*
X0018917Y0067402D01*
X0018917Y0066403D02*
X0019517Y0066403D01*
X0019517Y0065405D02*
X0018917Y0065405D01*
X0018916Y0064406D02*
X0013117Y0064406D01*
X0013117Y0063408D02*
X0015317Y0063408D01*
X0015317Y0062409D02*
X0013419Y0062409D01*
X0014418Y0061411D02*
X0015376Y0061411D01*
X0015416Y0060412D02*
X0015691Y0060412D01*
X0016836Y0058992D02*
X0017369Y0058636D01*
X0018079Y0058342D01*
X0018832Y0058192D01*
X0018917Y0058192D01*
X0018917Y0064192D01*
X0019517Y0064192D01*
X0019517Y0058192D01*
X0019601Y0058192D01*
X0020354Y0058342D01*
X0021064Y0058636D01*
X0021703Y0059063D01*
X0022246Y0059606D01*
X0022500Y0059986D01*
X0022500Y0056672D01*
X0028175Y0050997D01*
X0027007Y0050513D01*
X0026161Y0049667D01*
X0025328Y0050500D01*
X0016836Y0058992D01*
X0017413Y0058415D02*
X0017902Y0058415D01*
X0018917Y0058415D02*
X0019517Y0058415D01*
X0019517Y0059414D02*
X0018917Y0059414D01*
X0018917Y0060412D02*
X0019517Y0060412D01*
X0019517Y0061411D02*
X0018917Y0061411D01*
X0018917Y0062409D02*
X0019517Y0062409D01*
X0019517Y0063408D02*
X0018917Y0063408D01*
X0015620Y0068400D02*
X0012813Y0068400D01*
X0013117Y0067402D02*
X0015342Y0067402D01*
X0015317Y0066403D02*
X0013117Y0066403D01*
X0013117Y0065405D02*
X0015317Y0065405D01*
X0016208Y0069399D02*
X0012225Y0069399D01*
X0010946Y0070397D02*
X0017488Y0070397D01*
X0014782Y0075390D02*
X0003968Y0075390D01*
X0003968Y0076388D02*
X0013783Y0076388D01*
X0012785Y0077387D02*
X0003968Y0077387D01*
X0003968Y0078385D02*
X0007214Y0078385D01*
X0006094Y0079384D02*
X0003968Y0079384D01*
X0003968Y0080382D02*
X0005573Y0080382D01*
X0005317Y0081381D02*
X0003968Y0081381D01*
X0003968Y0082379D02*
X0005317Y0082379D01*
X0005317Y0083378D02*
X0003968Y0083378D01*
X0003968Y0084376D02*
X0005317Y0084376D01*
X0005317Y0085375D02*
X0003968Y0085375D01*
X0003968Y0086373D02*
X0005317Y0086373D01*
X0005324Y0087372D02*
X0003968Y0087372D01*
X0003968Y0088370D02*
X0005738Y0088370D01*
X0006493Y0089369D02*
X0003968Y0089369D01*
X0003968Y0090368D02*
X0008176Y0090368D01*
X0009217Y0084177D02*
X0009500Y0083500D01*
X0024500Y0068500D01*
X0024500Y0057500D01*
X0042500Y0039500D01*
X0042500Y0033500D01*
X0042642Y0032996D01*
X0042500Y0025500D02*
X0040500Y0025500D01*
X0024500Y0041500D01*
X0024500Y0048500D01*
X0009500Y0063500D01*
X0009217Y0064492D01*
X0006208Y0069399D02*
X0003968Y0069399D01*
X0003968Y0070397D02*
X0007488Y0070397D01*
X0005620Y0068400D02*
X0003968Y0068400D01*
X0003968Y0067402D02*
X0005317Y0067402D01*
X0005317Y0066403D02*
X0003968Y0066403D01*
X0003968Y0065405D02*
X0005317Y0065405D01*
X0005317Y0064406D02*
X0003968Y0064406D01*
X0003968Y0063408D02*
X0005317Y0063408D01*
X0005317Y0062409D02*
X0003968Y0062409D01*
X0003968Y0061411D02*
X0005317Y0061411D01*
X0005691Y0060412D02*
X0003968Y0060412D01*
X0003968Y0059414D02*
X0006380Y0059414D01*
X0007902Y0058415D02*
X0003968Y0058415D01*
X0003968Y0057417D02*
X0012755Y0057417D01*
X0011756Y0058415D02*
X0010531Y0058415D01*
X0013753Y0056418D02*
X0003968Y0056418D01*
X0003968Y0055420D02*
X0014752Y0055420D01*
X0015750Y0054421D02*
X0003968Y0054421D01*
X0003968Y0053423D02*
X0016749Y0053423D01*
X0017747Y0052424D02*
X0003968Y0052424D01*
X0003968Y0051426D02*
X0018746Y0051426D01*
X0018917Y0050427D02*
X0019517Y0050427D01*
X0019517Y0049429D02*
X0018917Y0049429D01*
X0018917Y0048430D02*
X0019517Y0048430D01*
X0019517Y0047432D02*
X0018917Y0047432D01*
X0018917Y0046433D02*
X0019517Y0046433D01*
X0019517Y0045434D02*
X0018917Y0045434D01*
X0016010Y0049429D02*
X0012510Y0049429D01*
X0012931Y0048430D02*
X0015502Y0048430D01*
X0015317Y0047432D02*
X0013117Y0047432D01*
X0013117Y0046433D02*
X0015317Y0046433D01*
X0015317Y0045434D02*
X0013394Y0045434D01*
X0014392Y0044436D02*
X0015317Y0044436D01*
X0012730Y0040442D02*
X0012624Y0040442D01*
X0011768Y0039443D02*
X0013728Y0039443D01*
X0014727Y0038445D02*
X0003968Y0038445D01*
X0003968Y0039443D02*
X0006665Y0039443D01*
X0005809Y0040442D02*
X0003968Y0040442D01*
X0003968Y0041440D02*
X0005396Y0041440D01*
X0005317Y0042439D02*
X0003968Y0042439D01*
X0003968Y0043437D02*
X0005317Y0043437D01*
X0005317Y0044436D02*
X0003968Y0044436D01*
X0003968Y0045434D02*
X0005317Y0045434D01*
X0005317Y0046433D02*
X0003968Y0046433D01*
X0003968Y0047432D02*
X0005317Y0047432D01*
X0005502Y0048430D02*
X0003968Y0048430D01*
X0003968Y0049429D02*
X0005923Y0049429D01*
X0006921Y0050427D02*
X0003968Y0050427D01*
X0009217Y0044807D02*
X0009500Y0044500D01*
X0011500Y0044500D01*
X0024500Y0031500D01*
X0031500Y0031500D01*
X0037500Y0025500D01*
X0037500Y0022500D01*
X0042500Y0017500D01*
X0042642Y0017248D01*
X0038117Y0018475D02*
X0003968Y0018475D01*
X0003968Y0019473D02*
X0006950Y0019473D01*
X0007007Y0019416D02*
X0008441Y0018822D01*
X0009992Y0018822D01*
X0011426Y0019416D01*
X0012523Y0020513D01*
X0013117Y0021946D01*
X0013117Y0028298D01*
X0012523Y0029731D01*
X0011426Y0030828D01*
X0009992Y0031422D01*
X0008441Y0031422D01*
X0007007Y0030828D01*
X0005910Y0029731D01*
X0005317Y0028298D01*
X0005317Y0021946D01*
X0005910Y0020513D01*
X0007007Y0019416D01*
X0005951Y0020472D02*
X0003968Y0020472D01*
X0003968Y0021470D02*
X0005514Y0021470D01*
X0005317Y0022469D02*
X0003968Y0022469D01*
X0003968Y0023467D02*
X0005317Y0023467D01*
X0005317Y0024466D02*
X0003968Y0024466D01*
X0003968Y0025464D02*
X0005317Y0025464D01*
X0005317Y0026463D02*
X0003968Y0026463D01*
X0003968Y0027461D02*
X0005317Y0027461D01*
X0005384Y0028460D02*
X0003968Y0028460D01*
X0003968Y0029458D02*
X0005797Y0029458D01*
X0006636Y0030457D02*
X0003968Y0030457D01*
X0003968Y0031455D02*
X0021716Y0031455D01*
X0021064Y0030978D02*
X0021703Y0030551D01*
X0022246Y0030008D01*
X0022673Y0029369D01*
X0022967Y0028660D01*
X0023117Y0027906D01*
X0023117Y0025422D01*
X0019517Y0025422D01*
X0019517Y0024822D01*
X0023117Y0024822D01*
X0023117Y0022338D01*
X0022967Y0021584D01*
X0022673Y0020875D01*
X0022246Y0020236D01*
X0021703Y0019693D01*
X0021064Y0019266D01*
X0020354Y0018972D01*
X0019601Y0018822D01*
X0019517Y0018822D01*
X0019517Y0024822D01*
X0018917Y0024822D01*
X0018917Y0018822D01*
X0018832Y0018822D01*
X0018079Y0018972D01*
X0017369Y0019266D01*
X0016730Y0019693D01*
X0016187Y0020236D01*
X0015760Y0020875D01*
X0015466Y0021584D01*
X0015317Y0022338D01*
X0015317Y0024822D01*
X0018916Y0024822D01*
X0018916Y0025422D01*
X0015317Y0025422D01*
X0015317Y0027906D01*
X0015466Y0028660D01*
X0015760Y0029369D01*
X0016187Y0030008D01*
X0016730Y0030551D01*
X0017369Y0030978D01*
X0018079Y0031272D01*
X0018832Y0031422D01*
X0018917Y0031422D01*
X0018917Y0025422D01*
X0019517Y0025422D01*
X0019517Y0031422D01*
X0019601Y0031422D01*
X0020354Y0031272D01*
X0021064Y0030978D01*
X0021797Y0030457D02*
X0022715Y0030457D01*
X0022613Y0029458D02*
X0025797Y0029458D01*
X0025384Y0028460D02*
X0023006Y0028460D01*
X0023117Y0027461D02*
X0025317Y0027461D01*
X0025317Y0026463D02*
X0023117Y0026463D01*
X0023117Y0025464D02*
X0025317Y0025464D01*
X0025317Y0024466D02*
X0023117Y0024466D01*
X0023117Y0023467D02*
X0025317Y0023467D01*
X0025317Y0022469D02*
X0023117Y0022469D01*
X0022919Y0021470D02*
X0025514Y0021470D01*
X0025951Y0020472D02*
X0022403Y0020472D01*
X0021374Y0019473D02*
X0026950Y0019473D01*
X0031483Y0019473D02*
X0037698Y0019473D01*
X0036700Y0020472D02*
X0032482Y0020472D01*
X0032919Y0021470D02*
X0035701Y0021470D01*
X0035500Y0022469D02*
X0033117Y0022469D01*
X0033117Y0023467D02*
X0035500Y0023467D01*
X0035500Y0024466D02*
X0033117Y0024466D01*
X0033117Y0025464D02*
X0034707Y0025464D01*
X0033709Y0026463D02*
X0033117Y0026463D01*
X0037992Y0017476D02*
X0003968Y0017476D01*
X0011483Y0019473D02*
X0017059Y0019473D01*
X0016030Y0020472D02*
X0012482Y0020472D01*
X0012919Y0021470D02*
X0015514Y0021470D01*
X0015317Y0022469D02*
X0013117Y0022469D01*
X0013117Y0023467D02*
X0015317Y0023467D01*
X0015317Y0024466D02*
X0013117Y0024466D01*
X0013117Y0025464D02*
X0015317Y0025464D01*
X0015317Y0026463D02*
X0013117Y0026463D01*
X0013117Y0027461D02*
X0015317Y0027461D01*
X0015427Y0028460D02*
X0013049Y0028460D01*
X0012636Y0029458D02*
X0015820Y0029458D01*
X0016636Y0030457D02*
X0011797Y0030457D01*
X0016724Y0036448D02*
X0003968Y0036448D01*
X0003968Y0037446D02*
X0015725Y0037446D01*
X0017722Y0035449D02*
X0003968Y0035449D01*
X0003968Y0034451D02*
X0018721Y0034451D01*
X0019719Y0033452D02*
X0003968Y0033452D01*
X0003968Y0032454D02*
X0020718Y0032454D01*
X0019517Y0030457D02*
X0018917Y0030457D01*
X0018917Y0029458D02*
X0019517Y0029458D01*
X0019517Y0028460D02*
X0018917Y0028460D01*
X0018917Y0027461D02*
X0019517Y0027461D01*
X0019517Y0026463D02*
X0018917Y0026463D01*
X0018917Y0025464D02*
X0019517Y0025464D01*
X0019517Y0024466D02*
X0018917Y0024466D01*
X0018917Y0023467D02*
X0019517Y0023467D01*
X0019517Y0022469D02*
X0018917Y0022469D01*
X0018917Y0021470D02*
X0019517Y0021470D01*
X0019517Y0020472D02*
X0018917Y0020472D01*
X0018917Y0019473D02*
X0019517Y0019473D01*
X0017016Y0050427D02*
X0011512Y0050427D01*
X0018412Y0057417D02*
X0022500Y0057417D01*
X0022500Y0058415D02*
X0020531Y0058415D01*
X0022053Y0059414D02*
X0022500Y0059414D01*
X0022753Y0056418D02*
X0019410Y0056418D01*
X0020409Y0055420D02*
X0023752Y0055420D01*
X0024750Y0054421D02*
X0021407Y0054421D01*
X0022406Y0053423D02*
X0025749Y0053423D01*
X0026747Y0052424D02*
X0023404Y0052424D01*
X0024403Y0051426D02*
X0027746Y0051426D01*
X0026921Y0050427D02*
X0025401Y0050427D01*
X0026500Y0058415D02*
X0027902Y0058415D01*
X0015573Y0080382D02*
X0015446Y0080382D01*
X0015319Y0081381D02*
X0014448Y0081381D01*
X0015317Y0082379D02*
X0013449Y0082379D01*
X0011786Y0078385D02*
X0011219Y0078385D01*
X0042650Y0088370D02*
X0043028Y0088370D01*
X0043028Y0089369D02*
X0042650Y0089369D01*
X0042650Y0090368D02*
X0043028Y0090368D01*
X0043028Y0091366D02*
X0042650Y0091366D01*
X0045081Y0076388D02*
X0052181Y0076388D01*
X0052181Y0075390D02*
X0046194Y0075390D01*
X0046836Y0074391D02*
X0052181Y0074391D01*
X0052181Y0073393D02*
X0047249Y0073393D01*
X0047291Y0072394D02*
X0052181Y0072394D01*
X0052181Y0071396D02*
X0047272Y0071396D01*
X0046859Y0070397D02*
X0052181Y0070397D01*
X0052181Y0069399D02*
X0046250Y0069399D01*
X0045309Y0068400D02*
X0052181Y0068400D01*
X0052181Y0067402D02*
X0046308Y0067402D01*
X0046883Y0066403D02*
X0052181Y0066403D01*
X0052181Y0065405D02*
X0047291Y0065405D01*
X0047291Y0064406D02*
X0052181Y0064406D01*
X0052181Y0063408D02*
X0047225Y0063408D01*
X0046812Y0062409D02*
X0052181Y0062409D01*
X0052181Y0061411D02*
X0046136Y0061411D01*
X0045423Y0060412D02*
X0052181Y0060412D01*
X0052181Y0059414D02*
X0046422Y0059414D01*
X0046930Y0058415D02*
X0052181Y0058415D01*
X0052181Y0057417D02*
X0047291Y0057417D01*
X0047291Y0056418D02*
X0052181Y0056418D01*
X0052181Y0055420D02*
X0047178Y0055420D01*
X0046764Y0054421D02*
X0052181Y0054421D01*
X0052181Y0053423D02*
X0046022Y0053423D01*
X0045537Y0052424D02*
X0052181Y0052424D01*
X0052181Y0051426D02*
X0046536Y0051426D01*
X0046977Y0050427D02*
X0052181Y0050427D01*
X0052181Y0049429D02*
X0047291Y0049429D01*
X0047291Y0048430D02*
X0052181Y0048430D01*
X0052181Y0047432D02*
X0047131Y0047432D01*
X0046717Y0046433D02*
X0052181Y0046433D01*
X0052181Y0045434D02*
X0045908Y0045434D01*
X0044391Y0044436D02*
X0052181Y0044436D01*
X0042500Y0025500D02*
X0042642Y0025122D01*
M02*
