G75*
%MOIN*%
%OFA0B0*%
%FSLAX25Y25*%
%IPPOS*%
%LPD*%
%AMOC8*
5,1,8,0,0,1.08239X$1,22.5*
%
%ADD10C,0.00200*%
%ADD11C,0.00500*%
%ADD12C,0.01000*%
%ADD13C,0.00600*%
%ADD14C,0.00800*%
D10*
X0005074Y0008114D02*
X0005441Y0008114D01*
X0006175Y0008114D02*
X0007643Y0008114D01*
X0007643Y0007747D02*
X0007643Y0008481D01*
X0007643Y0009220D02*
X0006175Y0009220D01*
X0006175Y0010321D01*
X0006542Y0010688D01*
X0007643Y0010688D01*
X0007276Y0011430D02*
X0006542Y0011430D01*
X0006175Y0011797D01*
X0006175Y0012531D01*
X0006542Y0012898D01*
X0006909Y0012898D01*
X0006909Y0011430D01*
X0007276Y0011430D02*
X0007643Y0011797D01*
X0007643Y0012531D01*
X0008674Y0012534D02*
X0009041Y0012534D01*
X0009775Y0012534D02*
X0011243Y0012534D01*
X0011243Y0012167D02*
X0011243Y0012901D01*
X0010876Y0013640D02*
X0011243Y0014007D01*
X0011243Y0015108D01*
X0011609Y0015108D02*
X0009775Y0015108D01*
X0009775Y0014007D01*
X0010142Y0013640D01*
X0010876Y0013640D01*
X0011976Y0014374D02*
X0011976Y0014741D01*
X0011609Y0015108D01*
X0011243Y0015850D02*
X0009775Y0015850D01*
X0009775Y0016951D01*
X0010142Y0017318D01*
X0011243Y0017318D01*
X0008376Y0018060D02*
X0006175Y0018060D01*
X0006175Y0019161D01*
X0006542Y0019528D01*
X0007276Y0019528D01*
X0007643Y0019161D01*
X0007643Y0018060D01*
X0007276Y0017318D02*
X0007643Y0016951D01*
X0007643Y0015850D01*
X0008376Y0015850D02*
X0006175Y0015850D01*
X0006175Y0016951D01*
X0006542Y0017318D01*
X0007276Y0017318D01*
X0007643Y0015108D02*
X0006542Y0015108D01*
X0006175Y0014741D01*
X0006175Y0014007D01*
X0006909Y0014007D02*
X0006909Y0015108D01*
X0007643Y0015108D02*
X0007643Y0014007D01*
X0007276Y0013640D01*
X0006909Y0014007D01*
X0009775Y0012534D02*
X0009775Y0012167D01*
X0009775Y0011425D02*
X0009775Y0010324D01*
X0010142Y0009957D01*
X0010509Y0010324D01*
X0010509Y0011058D01*
X0010876Y0011425D01*
X0011243Y0011058D01*
X0011243Y0009957D01*
X0010509Y0009215D02*
X0010509Y0007747D01*
X0010876Y0007747D02*
X0010142Y0007747D01*
X0009775Y0008114D01*
X0009775Y0008848D01*
X0010142Y0009215D01*
X0010509Y0009215D01*
X0011243Y0008848D02*
X0011243Y0008114D01*
X0010876Y0007747D01*
X0010876Y0007005D02*
X0009408Y0007005D01*
X0009041Y0006638D01*
X0009041Y0005537D01*
X0011243Y0005537D01*
X0011243Y0006638D01*
X0010876Y0007005D01*
X0007643Y0005537D02*
X0005441Y0005537D01*
X0005441Y0006638D01*
X0005808Y0007005D01*
X0006542Y0007005D01*
X0006909Y0006638D01*
X0006909Y0005537D01*
X0006175Y0007747D02*
X0006175Y0008114D01*
X0005441Y0020270D02*
X0005441Y0020637D01*
X0007643Y0020637D01*
X0007643Y0021003D02*
X0007643Y0020270D01*
X0007276Y0021743D02*
X0006542Y0021743D01*
X0006175Y0022110D01*
X0006175Y0022844D01*
X0006542Y0023211D01*
X0006909Y0023211D01*
X0006909Y0021743D01*
X0007276Y0021743D02*
X0007643Y0022110D01*
X0007643Y0022844D01*
X0007306Y0033096D02*
X0005104Y0033096D01*
X0005104Y0035306D02*
X0005104Y0036407D01*
X0005471Y0036774D01*
X0006939Y0036774D01*
X0007306Y0036407D01*
X0007306Y0035306D01*
X0005104Y0035306D01*
X0005838Y0037516D02*
X0005104Y0038250D01*
X0007306Y0038250D01*
X0007306Y0037516D02*
X0007306Y0038984D01*
X0007306Y0034564D02*
X0007306Y0033096D01*
X0007306Y0052781D02*
X0005104Y0052781D01*
X0005104Y0054991D02*
X0005104Y0056092D01*
X0005471Y0056459D01*
X0006939Y0056459D01*
X0007306Y0056092D01*
X0007306Y0054991D01*
X0005104Y0054991D01*
X0005471Y0057201D02*
X0005104Y0057568D01*
X0005104Y0058302D01*
X0005471Y0058669D01*
X0005838Y0058669D01*
X0007306Y0057201D01*
X0007306Y0058669D01*
X0007306Y0054249D02*
X0007306Y0052781D01*
X0007306Y0072466D02*
X0005104Y0072466D01*
X0005104Y0074676D02*
X0005104Y0075777D01*
X0005471Y0076144D01*
X0006939Y0076144D01*
X0007306Y0075777D01*
X0007306Y0074676D01*
X0005104Y0074676D01*
X0005471Y0076886D02*
X0005104Y0077253D01*
X0005104Y0077987D01*
X0005471Y0078354D01*
X0005838Y0078354D01*
X0006205Y0077987D01*
X0006572Y0078354D01*
X0006939Y0078354D01*
X0007306Y0077987D01*
X0007306Y0077253D01*
X0006939Y0076886D01*
X0006205Y0077620D02*
X0006205Y0077987D01*
X0007306Y0073934D02*
X0007306Y0072466D01*
X0007306Y0092151D02*
X0005104Y0092151D01*
X0005104Y0094361D02*
X0005104Y0095462D01*
X0005471Y0095829D01*
X0006939Y0095829D01*
X0007306Y0095462D01*
X0007306Y0094361D01*
X0005104Y0094361D01*
X0006205Y0096571D02*
X0006205Y0098039D01*
X0007306Y0097672D02*
X0005104Y0097672D01*
X0006205Y0096571D01*
X0007306Y0093619D02*
X0007306Y0092151D01*
X0034631Y0091892D02*
X0036833Y0091892D01*
X0034631Y0090424D01*
X0036833Y0090424D01*
X0036466Y0089682D02*
X0036833Y0089315D01*
X0036833Y0088581D01*
X0036466Y0088214D01*
X0034998Y0088214D01*
X0034631Y0088581D01*
X0034631Y0089315D01*
X0034998Y0089682D01*
X0035732Y0089682D02*
X0035732Y0088948D01*
X0035732Y0089682D02*
X0036466Y0089682D01*
X0036833Y0092634D02*
X0034631Y0092634D01*
X0034631Y0093735D01*
X0034998Y0094102D01*
X0036466Y0094102D01*
X0036833Y0093735D01*
X0036833Y0092634D01*
D11*
X0032746Y0096238D02*
X0030844Y0096238D01*
X0030844Y0097189D01*
X0031161Y0097506D01*
X0031795Y0097506D01*
X0032112Y0097189D01*
X0032112Y0096238D01*
X0032746Y0098448D02*
X0030844Y0098448D01*
X0030844Y0099716D02*
X0032746Y0099716D01*
X0032112Y0099082D01*
X0032746Y0098448D01*
X0032746Y0100658D02*
X0030844Y0100658D01*
X0030844Y0101609D01*
X0031161Y0101926D01*
X0031795Y0101926D01*
X0032112Y0101609D01*
X0032112Y0100658D01*
X0032112Y0101292D02*
X0032746Y0101926D01*
X0032429Y0078304D02*
X0031161Y0078304D01*
X0030844Y0077987D01*
X0030844Y0077036D01*
X0032746Y0077036D01*
X0032746Y0077987D01*
X0032429Y0078304D01*
X0032746Y0076094D02*
X0032746Y0074826D01*
X0030844Y0074826D01*
X0030844Y0076094D01*
X0031795Y0075460D02*
X0031795Y0074826D01*
X0031795Y0073884D02*
X0031161Y0073884D01*
X0030844Y0073567D01*
X0030844Y0072616D01*
X0032746Y0072616D01*
X0032112Y0072616D02*
X0032112Y0073567D01*
X0031795Y0073884D01*
X0032112Y0073250D02*
X0032746Y0073884D01*
X0032746Y0015312D02*
X0030844Y0015312D01*
X0030844Y0014044D02*
X0032746Y0015312D01*
X0032746Y0014044D02*
X0030844Y0014044D01*
X0031161Y0013102D02*
X0031795Y0013102D01*
X0032112Y0012785D01*
X0032112Y0011834D01*
X0032112Y0012468D02*
X0032746Y0013102D01*
X0032746Y0011834D02*
X0030844Y0011834D01*
X0030844Y0012785D01*
X0031161Y0013102D01*
X0031161Y0010892D02*
X0030844Y0010575D01*
X0030844Y0009941D01*
X0031161Y0009624D01*
X0032429Y0009624D01*
X0032746Y0009941D01*
X0032746Y0010575D01*
X0032429Y0010892D01*
X0031795Y0010892D01*
X0031795Y0010258D01*
D12*
X0029217Y0019422D02*
X0029217Y0021622D01*
X0029217Y0028622D02*
X0029217Y0030822D01*
X0029217Y0039107D02*
X0029217Y0041307D01*
X0029217Y0048307D02*
X0029217Y0050507D01*
X0029217Y0058792D02*
X0029217Y0060992D01*
X0029217Y0067992D02*
X0029217Y0070192D01*
X0029217Y0078477D02*
X0029217Y0080677D01*
X0029217Y0087677D02*
X0029217Y0089877D01*
X0029220Y0078476D02*
X0029077Y0078233D01*
X0028929Y0077993D01*
X0028775Y0077758D01*
X0028615Y0077526D01*
X0028449Y0077298D01*
X0028278Y0077074D01*
X0028102Y0076855D01*
X0027920Y0076640D01*
X0027733Y0076429D01*
X0027541Y0076223D01*
X0027344Y0076022D01*
X0027142Y0075826D01*
X0026936Y0075634D01*
X0026724Y0075448D01*
X0026508Y0075267D01*
X0026288Y0075091D01*
X0026064Y0074921D01*
X0025836Y0074756D01*
X0025603Y0074597D01*
X0025367Y0074444D01*
X0025127Y0074297D01*
X0024884Y0074155D01*
X0024637Y0074019D01*
X0024387Y0073890D01*
X0024134Y0073766D01*
X0023877Y0073649D01*
X0023619Y0073539D01*
X0023357Y0073434D01*
X0023093Y0073336D01*
X0022827Y0073244D01*
X0022558Y0073159D01*
X0022288Y0073081D01*
X0022015Y0073009D01*
X0021741Y0072944D01*
X0021466Y0072886D01*
X0021189Y0072834D01*
X0020911Y0072789D01*
X0020632Y0072751D01*
X0020352Y0072720D01*
X0020072Y0072696D01*
X0019791Y0072678D01*
X0019509Y0072668D01*
X0019228Y0072664D01*
X0018946Y0072667D01*
X0018665Y0072677D01*
X0018383Y0072694D01*
X0018103Y0072718D01*
X0017823Y0072749D01*
X0017544Y0072786D01*
X0017266Y0072831D01*
X0016989Y0072882D01*
X0016713Y0072940D01*
X0016439Y0073004D01*
X0016167Y0073075D01*
X0015896Y0073153D01*
X0015627Y0073238D01*
X0015361Y0073329D01*
X0015097Y0073426D01*
X0014835Y0073530D01*
X0014576Y0073641D01*
X0014320Y0073757D01*
X0014066Y0073880D01*
X0013816Y0074009D01*
X0013569Y0074145D01*
X0013325Y0074286D01*
X0013085Y0074433D01*
X0012848Y0074586D01*
X0012616Y0074744D01*
X0012387Y0074909D01*
X0012162Y0075078D01*
X0011942Y0075254D01*
X0011726Y0075434D01*
X0011514Y0075620D01*
X0011307Y0075811D01*
X0011105Y0076007D01*
X0010908Y0076208D01*
X0010715Y0076413D01*
X0010528Y0076624D01*
X0010346Y0076838D01*
X0010169Y0077058D01*
X0009997Y0077281D01*
X0009831Y0077509D01*
X0009671Y0077740D01*
X0009516Y0077975D01*
X0009368Y0078215D01*
X0009225Y0078457D01*
X0009088Y0078703D01*
X0008957Y0078953D01*
X0008832Y0079205D01*
X0008714Y0079461D01*
X0008602Y0079719D01*
X0008496Y0079980D01*
X0008396Y0080243D01*
X0008303Y0080509D01*
X0008217Y0080777D01*
X0008219Y0087576D02*
X0008305Y0087844D01*
X0008398Y0088110D01*
X0008498Y0088373D01*
X0008604Y0088634D01*
X0008716Y0088892D01*
X0008834Y0089148D01*
X0008959Y0089400D01*
X0009090Y0089650D01*
X0009227Y0089896D01*
X0009369Y0090138D01*
X0009518Y0090377D01*
X0009673Y0090613D01*
X0009833Y0090844D01*
X0009999Y0091072D01*
X0010170Y0091295D01*
X0010347Y0091514D01*
X0010529Y0091729D01*
X0010716Y0091939D01*
X0010909Y0092145D01*
X0011106Y0092346D01*
X0011308Y0092541D01*
X0011515Y0092732D01*
X0011727Y0092918D01*
X0011943Y0093099D01*
X0012163Y0093274D01*
X0012388Y0093444D01*
X0012616Y0093608D01*
X0012849Y0093767D01*
X0013086Y0093920D01*
X0013326Y0094067D01*
X0013569Y0094208D01*
X0013816Y0094343D01*
X0014067Y0094472D01*
X0014320Y0094595D01*
X0014576Y0094711D01*
X0014835Y0094822D01*
X0015097Y0094926D01*
X0015361Y0095023D01*
X0015627Y0095114D01*
X0015896Y0095199D01*
X0016166Y0095277D01*
X0016439Y0095348D01*
X0016713Y0095413D01*
X0016988Y0095470D01*
X0017265Y0095522D01*
X0017543Y0095566D01*
X0017822Y0095603D01*
X0018102Y0095634D01*
X0018383Y0095658D01*
X0018664Y0095675D01*
X0018945Y0095685D01*
X0019227Y0095688D01*
X0019508Y0095684D01*
X0019790Y0095674D01*
X0020071Y0095656D01*
X0020351Y0095632D01*
X0020631Y0095601D01*
X0020910Y0095563D01*
X0021188Y0095518D01*
X0021465Y0095466D01*
X0021740Y0095408D01*
X0022014Y0095343D01*
X0022286Y0095271D01*
X0022557Y0095192D01*
X0022825Y0095107D01*
X0023091Y0095016D01*
X0023355Y0094918D01*
X0023617Y0094813D01*
X0023876Y0094703D01*
X0024132Y0094585D01*
X0024385Y0094462D01*
X0024635Y0094333D01*
X0024882Y0094197D01*
X0025125Y0094055D01*
X0025365Y0093908D01*
X0025601Y0093755D01*
X0025833Y0093596D01*
X0026062Y0093431D01*
X0026286Y0093261D01*
X0026506Y0093085D01*
X0026722Y0092904D01*
X0026933Y0092718D01*
X0027139Y0092527D01*
X0027341Y0092330D01*
X0027538Y0092129D01*
X0027730Y0091923D01*
X0027917Y0091713D01*
X0028099Y0091498D01*
X0028275Y0091278D01*
X0028446Y0091054D01*
X0028612Y0090826D01*
X0028771Y0090595D01*
X0028926Y0090359D01*
X0029074Y0090120D01*
X0029216Y0089877D01*
X0029216Y0070192D02*
X0029074Y0070435D01*
X0028926Y0070674D01*
X0028771Y0070910D01*
X0028612Y0071141D01*
X0028446Y0071369D01*
X0028275Y0071593D01*
X0028099Y0071813D01*
X0027917Y0072028D01*
X0027730Y0072238D01*
X0027538Y0072444D01*
X0027341Y0072645D01*
X0027139Y0072842D01*
X0026933Y0073033D01*
X0026722Y0073219D01*
X0026506Y0073400D01*
X0026286Y0073576D01*
X0026062Y0073746D01*
X0025833Y0073911D01*
X0025601Y0074070D01*
X0025365Y0074223D01*
X0025125Y0074370D01*
X0024882Y0074512D01*
X0024635Y0074648D01*
X0024385Y0074777D01*
X0024132Y0074900D01*
X0023876Y0075018D01*
X0023617Y0075128D01*
X0023355Y0075233D01*
X0023091Y0075331D01*
X0022825Y0075422D01*
X0022557Y0075507D01*
X0022286Y0075586D01*
X0022014Y0075658D01*
X0021740Y0075723D01*
X0021465Y0075781D01*
X0021188Y0075833D01*
X0020910Y0075878D01*
X0020631Y0075916D01*
X0020351Y0075947D01*
X0020071Y0075971D01*
X0019790Y0075989D01*
X0019508Y0075999D01*
X0019227Y0076003D01*
X0018945Y0076000D01*
X0018664Y0075990D01*
X0018383Y0075973D01*
X0018102Y0075949D01*
X0017822Y0075918D01*
X0017543Y0075881D01*
X0017265Y0075837D01*
X0016988Y0075785D01*
X0016713Y0075728D01*
X0016439Y0075663D01*
X0016166Y0075592D01*
X0015896Y0075514D01*
X0015627Y0075429D01*
X0015361Y0075338D01*
X0015097Y0075241D01*
X0014835Y0075137D01*
X0014576Y0075026D01*
X0014320Y0074910D01*
X0014067Y0074787D01*
X0013816Y0074658D01*
X0013569Y0074523D01*
X0013326Y0074382D01*
X0013086Y0074235D01*
X0012849Y0074082D01*
X0012616Y0073923D01*
X0012388Y0073759D01*
X0012163Y0073589D01*
X0011943Y0073414D01*
X0011727Y0073233D01*
X0011515Y0073047D01*
X0011308Y0072856D01*
X0011106Y0072661D01*
X0010909Y0072460D01*
X0010716Y0072254D01*
X0010529Y0072044D01*
X0010347Y0071829D01*
X0010170Y0071610D01*
X0009999Y0071387D01*
X0009833Y0071159D01*
X0009673Y0070928D01*
X0009518Y0070692D01*
X0009369Y0070453D01*
X0009227Y0070211D01*
X0009090Y0069965D01*
X0008959Y0069715D01*
X0008834Y0069463D01*
X0008716Y0069207D01*
X0008604Y0068949D01*
X0008498Y0068688D01*
X0008398Y0068425D01*
X0008305Y0068159D01*
X0008219Y0067891D01*
X0008217Y0061092D02*
X0008303Y0060824D01*
X0008396Y0060558D01*
X0008496Y0060295D01*
X0008602Y0060034D01*
X0008714Y0059776D01*
X0008832Y0059520D01*
X0008957Y0059268D01*
X0009088Y0059018D01*
X0009225Y0058772D01*
X0009368Y0058530D01*
X0009516Y0058290D01*
X0009671Y0058055D01*
X0009831Y0057824D01*
X0009997Y0057596D01*
X0010169Y0057373D01*
X0010346Y0057153D01*
X0010528Y0056939D01*
X0010715Y0056728D01*
X0010908Y0056523D01*
X0011105Y0056322D01*
X0011307Y0056126D01*
X0011514Y0055935D01*
X0011726Y0055749D01*
X0011942Y0055569D01*
X0012162Y0055393D01*
X0012387Y0055224D01*
X0012616Y0055059D01*
X0012848Y0054901D01*
X0013085Y0054748D01*
X0013325Y0054601D01*
X0013569Y0054460D01*
X0013816Y0054324D01*
X0014066Y0054195D01*
X0014320Y0054072D01*
X0014576Y0053956D01*
X0014835Y0053845D01*
X0015097Y0053741D01*
X0015361Y0053644D01*
X0015627Y0053553D01*
X0015896Y0053468D01*
X0016167Y0053390D01*
X0016439Y0053319D01*
X0016713Y0053255D01*
X0016989Y0053197D01*
X0017266Y0053146D01*
X0017544Y0053101D01*
X0017823Y0053064D01*
X0018103Y0053033D01*
X0018383Y0053009D01*
X0018665Y0052992D01*
X0018946Y0052982D01*
X0019228Y0052979D01*
X0019509Y0052983D01*
X0019791Y0052993D01*
X0020072Y0053011D01*
X0020352Y0053035D01*
X0020632Y0053066D01*
X0020911Y0053104D01*
X0021189Y0053149D01*
X0021466Y0053201D01*
X0021741Y0053259D01*
X0022015Y0053324D01*
X0022288Y0053396D01*
X0022558Y0053474D01*
X0022827Y0053559D01*
X0023093Y0053651D01*
X0023357Y0053749D01*
X0023619Y0053854D01*
X0023877Y0053964D01*
X0024134Y0054081D01*
X0024387Y0054205D01*
X0024637Y0054334D01*
X0024884Y0054470D01*
X0025127Y0054612D01*
X0025367Y0054759D01*
X0025603Y0054912D01*
X0025836Y0055071D01*
X0026064Y0055236D01*
X0026288Y0055406D01*
X0026508Y0055582D01*
X0026724Y0055763D01*
X0026936Y0055949D01*
X0027142Y0056141D01*
X0027344Y0056337D01*
X0027541Y0056538D01*
X0027733Y0056744D01*
X0027920Y0056955D01*
X0028102Y0057170D01*
X0028278Y0057389D01*
X0028449Y0057613D01*
X0028615Y0057841D01*
X0028775Y0058073D01*
X0028929Y0058308D01*
X0029077Y0058548D01*
X0029220Y0058791D01*
X0029216Y0050507D02*
X0029074Y0050750D01*
X0028926Y0050989D01*
X0028771Y0051225D01*
X0028612Y0051456D01*
X0028446Y0051684D01*
X0028275Y0051908D01*
X0028099Y0052128D01*
X0027917Y0052343D01*
X0027730Y0052553D01*
X0027538Y0052759D01*
X0027341Y0052960D01*
X0027139Y0053157D01*
X0026933Y0053348D01*
X0026722Y0053534D01*
X0026506Y0053715D01*
X0026286Y0053891D01*
X0026062Y0054061D01*
X0025833Y0054226D01*
X0025601Y0054385D01*
X0025365Y0054538D01*
X0025125Y0054685D01*
X0024882Y0054827D01*
X0024635Y0054963D01*
X0024385Y0055092D01*
X0024132Y0055215D01*
X0023876Y0055333D01*
X0023617Y0055443D01*
X0023355Y0055548D01*
X0023091Y0055646D01*
X0022825Y0055737D01*
X0022557Y0055822D01*
X0022286Y0055901D01*
X0022014Y0055973D01*
X0021740Y0056038D01*
X0021465Y0056096D01*
X0021188Y0056148D01*
X0020910Y0056193D01*
X0020631Y0056231D01*
X0020351Y0056262D01*
X0020071Y0056286D01*
X0019790Y0056304D01*
X0019508Y0056314D01*
X0019227Y0056318D01*
X0018945Y0056315D01*
X0018664Y0056305D01*
X0018383Y0056288D01*
X0018102Y0056264D01*
X0017822Y0056233D01*
X0017543Y0056196D01*
X0017265Y0056152D01*
X0016988Y0056100D01*
X0016713Y0056043D01*
X0016439Y0055978D01*
X0016166Y0055907D01*
X0015896Y0055829D01*
X0015627Y0055744D01*
X0015361Y0055653D01*
X0015097Y0055556D01*
X0014835Y0055452D01*
X0014576Y0055341D01*
X0014320Y0055225D01*
X0014067Y0055102D01*
X0013816Y0054973D01*
X0013569Y0054838D01*
X0013326Y0054697D01*
X0013086Y0054550D01*
X0012849Y0054397D01*
X0012616Y0054238D01*
X0012388Y0054074D01*
X0012163Y0053904D01*
X0011943Y0053729D01*
X0011727Y0053548D01*
X0011515Y0053362D01*
X0011308Y0053171D01*
X0011106Y0052976D01*
X0010909Y0052775D01*
X0010716Y0052569D01*
X0010529Y0052359D01*
X0010347Y0052144D01*
X0010170Y0051925D01*
X0009999Y0051702D01*
X0009833Y0051474D01*
X0009673Y0051243D01*
X0009518Y0051007D01*
X0009369Y0050768D01*
X0009227Y0050526D01*
X0009090Y0050280D01*
X0008959Y0050030D01*
X0008834Y0049778D01*
X0008716Y0049522D01*
X0008604Y0049264D01*
X0008498Y0049003D01*
X0008398Y0048740D01*
X0008305Y0048474D01*
X0008219Y0048206D01*
X0008217Y0041407D02*
X0008303Y0041139D01*
X0008396Y0040873D01*
X0008496Y0040610D01*
X0008602Y0040349D01*
X0008714Y0040091D01*
X0008832Y0039835D01*
X0008957Y0039583D01*
X0009088Y0039333D01*
X0009225Y0039087D01*
X0009368Y0038845D01*
X0009516Y0038605D01*
X0009671Y0038370D01*
X0009831Y0038139D01*
X0009997Y0037911D01*
X0010169Y0037688D01*
X0010346Y0037468D01*
X0010528Y0037254D01*
X0010715Y0037043D01*
X0010908Y0036838D01*
X0011105Y0036637D01*
X0011307Y0036441D01*
X0011514Y0036250D01*
X0011726Y0036064D01*
X0011942Y0035884D01*
X0012162Y0035708D01*
X0012387Y0035539D01*
X0012616Y0035374D01*
X0012848Y0035216D01*
X0013085Y0035063D01*
X0013325Y0034916D01*
X0013569Y0034775D01*
X0013816Y0034639D01*
X0014066Y0034510D01*
X0014320Y0034387D01*
X0014576Y0034271D01*
X0014835Y0034160D01*
X0015097Y0034056D01*
X0015361Y0033959D01*
X0015627Y0033868D01*
X0015896Y0033783D01*
X0016167Y0033705D01*
X0016439Y0033634D01*
X0016713Y0033570D01*
X0016989Y0033512D01*
X0017266Y0033461D01*
X0017544Y0033416D01*
X0017823Y0033379D01*
X0018103Y0033348D01*
X0018383Y0033324D01*
X0018665Y0033307D01*
X0018946Y0033297D01*
X0019228Y0033294D01*
X0019509Y0033298D01*
X0019791Y0033308D01*
X0020072Y0033326D01*
X0020352Y0033350D01*
X0020632Y0033381D01*
X0020911Y0033419D01*
X0021189Y0033464D01*
X0021466Y0033516D01*
X0021741Y0033574D01*
X0022015Y0033639D01*
X0022288Y0033711D01*
X0022558Y0033789D01*
X0022827Y0033874D01*
X0023093Y0033966D01*
X0023357Y0034064D01*
X0023619Y0034169D01*
X0023877Y0034279D01*
X0024134Y0034396D01*
X0024387Y0034520D01*
X0024637Y0034649D01*
X0024884Y0034785D01*
X0025127Y0034927D01*
X0025367Y0035074D01*
X0025603Y0035227D01*
X0025836Y0035386D01*
X0026064Y0035551D01*
X0026288Y0035721D01*
X0026508Y0035897D01*
X0026724Y0036078D01*
X0026936Y0036264D01*
X0027142Y0036456D01*
X0027344Y0036652D01*
X0027541Y0036853D01*
X0027733Y0037059D01*
X0027920Y0037270D01*
X0028102Y0037485D01*
X0028278Y0037704D01*
X0028449Y0037928D01*
X0028615Y0038156D01*
X0028775Y0038388D01*
X0028929Y0038623D01*
X0029077Y0038863D01*
X0029220Y0039106D01*
X0029216Y0030822D02*
X0029074Y0031065D01*
X0028926Y0031304D01*
X0028771Y0031540D01*
X0028612Y0031771D01*
X0028446Y0031999D01*
X0028275Y0032223D01*
X0028099Y0032443D01*
X0027917Y0032658D01*
X0027730Y0032868D01*
X0027538Y0033074D01*
X0027341Y0033275D01*
X0027139Y0033472D01*
X0026933Y0033663D01*
X0026722Y0033849D01*
X0026506Y0034030D01*
X0026286Y0034206D01*
X0026062Y0034376D01*
X0025833Y0034541D01*
X0025601Y0034700D01*
X0025365Y0034853D01*
X0025125Y0035000D01*
X0024882Y0035142D01*
X0024635Y0035278D01*
X0024385Y0035407D01*
X0024132Y0035530D01*
X0023876Y0035648D01*
X0023617Y0035758D01*
X0023355Y0035863D01*
X0023091Y0035961D01*
X0022825Y0036052D01*
X0022557Y0036137D01*
X0022286Y0036216D01*
X0022014Y0036288D01*
X0021740Y0036353D01*
X0021465Y0036411D01*
X0021188Y0036463D01*
X0020910Y0036508D01*
X0020631Y0036546D01*
X0020351Y0036577D01*
X0020071Y0036601D01*
X0019790Y0036619D01*
X0019508Y0036629D01*
X0019227Y0036633D01*
X0018945Y0036630D01*
X0018664Y0036620D01*
X0018383Y0036603D01*
X0018102Y0036579D01*
X0017822Y0036548D01*
X0017543Y0036511D01*
X0017265Y0036467D01*
X0016988Y0036415D01*
X0016713Y0036358D01*
X0016439Y0036293D01*
X0016166Y0036222D01*
X0015896Y0036144D01*
X0015627Y0036059D01*
X0015361Y0035968D01*
X0015097Y0035871D01*
X0014835Y0035767D01*
X0014576Y0035656D01*
X0014320Y0035540D01*
X0014067Y0035417D01*
X0013816Y0035288D01*
X0013569Y0035153D01*
X0013326Y0035012D01*
X0013086Y0034865D01*
X0012849Y0034712D01*
X0012616Y0034553D01*
X0012388Y0034389D01*
X0012163Y0034219D01*
X0011943Y0034044D01*
X0011727Y0033863D01*
X0011515Y0033677D01*
X0011308Y0033486D01*
X0011106Y0033291D01*
X0010909Y0033090D01*
X0010716Y0032884D01*
X0010529Y0032674D01*
X0010347Y0032459D01*
X0010170Y0032240D01*
X0009999Y0032017D01*
X0009833Y0031789D01*
X0009673Y0031558D01*
X0009518Y0031322D01*
X0009369Y0031083D01*
X0009227Y0030841D01*
X0009090Y0030595D01*
X0008959Y0030345D01*
X0008834Y0030093D01*
X0008716Y0029837D01*
X0008604Y0029579D01*
X0008498Y0029318D01*
X0008398Y0029055D01*
X0008305Y0028789D01*
X0008219Y0028521D01*
X0008217Y0021722D02*
X0008303Y0021454D01*
X0008396Y0021188D01*
X0008496Y0020925D01*
X0008602Y0020664D01*
X0008714Y0020406D01*
X0008832Y0020150D01*
X0008957Y0019898D01*
X0009088Y0019648D01*
X0009225Y0019402D01*
X0009368Y0019160D01*
X0009516Y0018920D01*
X0009671Y0018685D01*
X0009831Y0018454D01*
X0009997Y0018226D01*
X0010169Y0018003D01*
X0010346Y0017783D01*
X0010528Y0017569D01*
X0010715Y0017358D01*
X0010908Y0017153D01*
X0011105Y0016952D01*
X0011307Y0016756D01*
X0011514Y0016565D01*
X0011726Y0016379D01*
X0011942Y0016199D01*
X0012162Y0016023D01*
X0012387Y0015854D01*
X0012616Y0015689D01*
X0012848Y0015531D01*
X0013085Y0015378D01*
X0013325Y0015231D01*
X0013569Y0015090D01*
X0013816Y0014954D01*
X0014066Y0014825D01*
X0014320Y0014702D01*
X0014576Y0014586D01*
X0014835Y0014475D01*
X0015097Y0014371D01*
X0015361Y0014274D01*
X0015627Y0014183D01*
X0015896Y0014098D01*
X0016167Y0014020D01*
X0016439Y0013949D01*
X0016713Y0013885D01*
X0016989Y0013827D01*
X0017266Y0013776D01*
X0017544Y0013731D01*
X0017823Y0013694D01*
X0018103Y0013663D01*
X0018383Y0013639D01*
X0018665Y0013622D01*
X0018946Y0013612D01*
X0019228Y0013609D01*
X0019509Y0013613D01*
X0019791Y0013623D01*
X0020072Y0013641D01*
X0020352Y0013665D01*
X0020632Y0013696D01*
X0020911Y0013734D01*
X0021189Y0013779D01*
X0021466Y0013831D01*
X0021741Y0013889D01*
X0022015Y0013954D01*
X0022288Y0014026D01*
X0022558Y0014104D01*
X0022827Y0014189D01*
X0023093Y0014281D01*
X0023357Y0014379D01*
X0023619Y0014484D01*
X0023877Y0014594D01*
X0024134Y0014711D01*
X0024387Y0014835D01*
X0024637Y0014964D01*
X0024884Y0015100D01*
X0025127Y0015242D01*
X0025367Y0015389D01*
X0025603Y0015542D01*
X0025836Y0015701D01*
X0026064Y0015866D01*
X0026288Y0016036D01*
X0026508Y0016212D01*
X0026724Y0016393D01*
X0026936Y0016579D01*
X0027142Y0016771D01*
X0027344Y0016967D01*
X0027541Y0017168D01*
X0027733Y0017374D01*
X0027920Y0017585D01*
X0028102Y0017800D01*
X0028278Y0018019D01*
X0028449Y0018243D01*
X0028615Y0018471D01*
X0028775Y0018703D01*
X0028929Y0018938D01*
X0029077Y0019178D01*
X0029220Y0019421D01*
D13*
X0028617Y0028522D02*
X0028531Y0028751D01*
X0028439Y0028978D01*
X0028342Y0029202D01*
X0028240Y0029424D01*
X0028132Y0029644D01*
X0028018Y0029861D01*
X0027900Y0030075D01*
X0027776Y0030286D01*
X0027647Y0030494D01*
X0027513Y0030698D01*
X0027374Y0030900D01*
X0027230Y0031098D01*
X0027082Y0031292D01*
X0026928Y0031483D01*
X0026770Y0031669D01*
X0026608Y0031852D01*
X0026441Y0032031D01*
X0026270Y0032206D01*
X0026094Y0032376D01*
X0025915Y0032542D01*
X0025731Y0032704D01*
X0025543Y0032861D01*
X0025352Y0033014D01*
X0025157Y0033162D01*
X0024959Y0033304D01*
X0024757Y0033443D01*
X0024551Y0033576D01*
X0024343Y0033704D01*
X0024131Y0033827D01*
X0023917Y0033944D01*
X0023700Y0034057D01*
X0023480Y0034164D01*
X0023257Y0034265D01*
X0023032Y0034361D01*
X0022805Y0034452D01*
X0022575Y0034537D01*
X0022344Y0034616D01*
X0022111Y0034690D01*
X0021876Y0034758D01*
X0021639Y0034820D01*
X0021401Y0034876D01*
X0021162Y0034927D01*
X0020921Y0034972D01*
X0020680Y0035010D01*
X0020437Y0035043D01*
X0020194Y0035070D01*
X0019950Y0035091D01*
X0019706Y0035106D01*
X0019462Y0035115D01*
X0019217Y0035118D01*
X0018972Y0035115D01*
X0018728Y0035106D01*
X0018484Y0035091D01*
X0018240Y0035070D01*
X0017997Y0035043D01*
X0017754Y0035010D01*
X0017513Y0034972D01*
X0017272Y0034927D01*
X0017033Y0034876D01*
X0016795Y0034820D01*
X0016558Y0034758D01*
X0016323Y0034690D01*
X0016090Y0034616D01*
X0015859Y0034537D01*
X0015629Y0034452D01*
X0015402Y0034361D01*
X0015177Y0034265D01*
X0014954Y0034164D01*
X0014734Y0034057D01*
X0014517Y0033944D01*
X0014303Y0033827D01*
X0014091Y0033704D01*
X0013883Y0033576D01*
X0013677Y0033443D01*
X0013475Y0033304D01*
X0013277Y0033162D01*
X0013082Y0033014D01*
X0012891Y0032861D01*
X0012703Y0032704D01*
X0012519Y0032542D01*
X0012340Y0032376D01*
X0012164Y0032206D01*
X0011993Y0032031D01*
X0011826Y0031852D01*
X0011664Y0031669D01*
X0011506Y0031483D01*
X0011352Y0031292D01*
X0011204Y0031098D01*
X0011060Y0030900D01*
X0010921Y0030698D01*
X0010787Y0030494D01*
X0010658Y0030286D01*
X0010534Y0030075D01*
X0010416Y0029861D01*
X0010302Y0029644D01*
X0010194Y0029424D01*
X0010092Y0029202D01*
X0009995Y0028978D01*
X0009903Y0028751D01*
X0009817Y0028522D01*
X0009817Y0021722D02*
X0009903Y0021493D01*
X0009995Y0021266D01*
X0010092Y0021042D01*
X0010194Y0020820D01*
X0010302Y0020600D01*
X0010416Y0020383D01*
X0010534Y0020169D01*
X0010658Y0019958D01*
X0010787Y0019750D01*
X0010921Y0019546D01*
X0011060Y0019344D01*
X0011204Y0019146D01*
X0011352Y0018952D01*
X0011506Y0018761D01*
X0011664Y0018575D01*
X0011826Y0018392D01*
X0011993Y0018213D01*
X0012164Y0018038D01*
X0012340Y0017868D01*
X0012519Y0017702D01*
X0012703Y0017540D01*
X0012891Y0017383D01*
X0013082Y0017230D01*
X0013277Y0017082D01*
X0013475Y0016940D01*
X0013677Y0016801D01*
X0013883Y0016668D01*
X0014091Y0016540D01*
X0014303Y0016417D01*
X0014517Y0016300D01*
X0014734Y0016187D01*
X0014954Y0016080D01*
X0015177Y0015979D01*
X0015402Y0015883D01*
X0015629Y0015792D01*
X0015859Y0015707D01*
X0016090Y0015628D01*
X0016323Y0015554D01*
X0016558Y0015486D01*
X0016795Y0015424D01*
X0017033Y0015368D01*
X0017272Y0015317D01*
X0017513Y0015272D01*
X0017754Y0015234D01*
X0017997Y0015201D01*
X0018240Y0015174D01*
X0018484Y0015153D01*
X0018728Y0015138D01*
X0018972Y0015129D01*
X0019217Y0015126D01*
X0019462Y0015129D01*
X0019706Y0015138D01*
X0019950Y0015153D01*
X0020194Y0015174D01*
X0020437Y0015201D01*
X0020680Y0015234D01*
X0020921Y0015272D01*
X0021162Y0015317D01*
X0021401Y0015368D01*
X0021639Y0015424D01*
X0021876Y0015486D01*
X0022111Y0015554D01*
X0022344Y0015628D01*
X0022575Y0015707D01*
X0022805Y0015792D01*
X0023032Y0015883D01*
X0023257Y0015979D01*
X0023480Y0016080D01*
X0023700Y0016187D01*
X0023917Y0016300D01*
X0024131Y0016417D01*
X0024343Y0016540D01*
X0024551Y0016668D01*
X0024757Y0016801D01*
X0024959Y0016940D01*
X0025157Y0017082D01*
X0025352Y0017230D01*
X0025543Y0017383D01*
X0025731Y0017540D01*
X0025915Y0017702D01*
X0026094Y0017868D01*
X0026270Y0018038D01*
X0026441Y0018213D01*
X0026608Y0018392D01*
X0026770Y0018575D01*
X0026928Y0018761D01*
X0027082Y0018952D01*
X0027230Y0019146D01*
X0027374Y0019344D01*
X0027513Y0019546D01*
X0027647Y0019750D01*
X0027776Y0019958D01*
X0027900Y0020169D01*
X0028018Y0020383D01*
X0028132Y0020600D01*
X0028240Y0020820D01*
X0028342Y0021042D01*
X0028439Y0021266D01*
X0028531Y0021493D01*
X0028617Y0021722D01*
X0028617Y0041407D02*
X0028531Y0041178D01*
X0028439Y0040951D01*
X0028342Y0040727D01*
X0028240Y0040505D01*
X0028132Y0040285D01*
X0028018Y0040068D01*
X0027900Y0039854D01*
X0027776Y0039643D01*
X0027647Y0039435D01*
X0027513Y0039231D01*
X0027374Y0039029D01*
X0027230Y0038831D01*
X0027082Y0038637D01*
X0026928Y0038446D01*
X0026770Y0038260D01*
X0026608Y0038077D01*
X0026441Y0037898D01*
X0026270Y0037723D01*
X0026094Y0037553D01*
X0025915Y0037387D01*
X0025731Y0037225D01*
X0025543Y0037068D01*
X0025352Y0036915D01*
X0025157Y0036767D01*
X0024959Y0036625D01*
X0024757Y0036486D01*
X0024551Y0036353D01*
X0024343Y0036225D01*
X0024131Y0036102D01*
X0023917Y0035985D01*
X0023700Y0035872D01*
X0023480Y0035765D01*
X0023257Y0035664D01*
X0023032Y0035568D01*
X0022805Y0035477D01*
X0022575Y0035392D01*
X0022344Y0035313D01*
X0022111Y0035239D01*
X0021876Y0035171D01*
X0021639Y0035109D01*
X0021401Y0035053D01*
X0021162Y0035002D01*
X0020921Y0034957D01*
X0020680Y0034919D01*
X0020437Y0034886D01*
X0020194Y0034859D01*
X0019950Y0034838D01*
X0019706Y0034823D01*
X0019462Y0034814D01*
X0019217Y0034811D01*
X0018972Y0034814D01*
X0018728Y0034823D01*
X0018484Y0034838D01*
X0018240Y0034859D01*
X0017997Y0034886D01*
X0017754Y0034919D01*
X0017513Y0034957D01*
X0017272Y0035002D01*
X0017033Y0035053D01*
X0016795Y0035109D01*
X0016558Y0035171D01*
X0016323Y0035239D01*
X0016090Y0035313D01*
X0015859Y0035392D01*
X0015629Y0035477D01*
X0015402Y0035568D01*
X0015177Y0035664D01*
X0014954Y0035765D01*
X0014734Y0035872D01*
X0014517Y0035985D01*
X0014303Y0036102D01*
X0014091Y0036225D01*
X0013883Y0036353D01*
X0013677Y0036486D01*
X0013475Y0036625D01*
X0013277Y0036767D01*
X0013082Y0036915D01*
X0012891Y0037068D01*
X0012703Y0037225D01*
X0012519Y0037387D01*
X0012340Y0037553D01*
X0012164Y0037723D01*
X0011993Y0037898D01*
X0011826Y0038077D01*
X0011664Y0038260D01*
X0011506Y0038446D01*
X0011352Y0038637D01*
X0011204Y0038831D01*
X0011060Y0039029D01*
X0010921Y0039231D01*
X0010787Y0039435D01*
X0010658Y0039643D01*
X0010534Y0039854D01*
X0010416Y0040068D01*
X0010302Y0040285D01*
X0010194Y0040505D01*
X0010092Y0040727D01*
X0009995Y0040951D01*
X0009903Y0041178D01*
X0009817Y0041407D01*
X0009817Y0048207D02*
X0009903Y0048436D01*
X0009995Y0048663D01*
X0010092Y0048887D01*
X0010194Y0049109D01*
X0010302Y0049329D01*
X0010416Y0049546D01*
X0010534Y0049760D01*
X0010658Y0049971D01*
X0010787Y0050179D01*
X0010921Y0050383D01*
X0011060Y0050585D01*
X0011204Y0050783D01*
X0011352Y0050977D01*
X0011506Y0051168D01*
X0011664Y0051354D01*
X0011826Y0051537D01*
X0011993Y0051716D01*
X0012164Y0051891D01*
X0012340Y0052061D01*
X0012519Y0052227D01*
X0012703Y0052389D01*
X0012891Y0052546D01*
X0013082Y0052699D01*
X0013277Y0052847D01*
X0013475Y0052989D01*
X0013677Y0053128D01*
X0013883Y0053261D01*
X0014091Y0053389D01*
X0014303Y0053512D01*
X0014517Y0053629D01*
X0014734Y0053742D01*
X0014954Y0053849D01*
X0015177Y0053950D01*
X0015402Y0054046D01*
X0015629Y0054137D01*
X0015859Y0054222D01*
X0016090Y0054301D01*
X0016323Y0054375D01*
X0016558Y0054443D01*
X0016795Y0054505D01*
X0017033Y0054561D01*
X0017272Y0054612D01*
X0017513Y0054657D01*
X0017754Y0054695D01*
X0017997Y0054728D01*
X0018240Y0054755D01*
X0018484Y0054776D01*
X0018728Y0054791D01*
X0018972Y0054800D01*
X0019217Y0054803D01*
X0019462Y0054800D01*
X0019706Y0054791D01*
X0019950Y0054776D01*
X0020194Y0054755D01*
X0020437Y0054728D01*
X0020680Y0054695D01*
X0020921Y0054657D01*
X0021162Y0054612D01*
X0021401Y0054561D01*
X0021639Y0054505D01*
X0021876Y0054443D01*
X0022111Y0054375D01*
X0022344Y0054301D01*
X0022575Y0054222D01*
X0022805Y0054137D01*
X0023032Y0054046D01*
X0023257Y0053950D01*
X0023480Y0053849D01*
X0023700Y0053742D01*
X0023917Y0053629D01*
X0024131Y0053512D01*
X0024343Y0053389D01*
X0024551Y0053261D01*
X0024757Y0053128D01*
X0024959Y0052989D01*
X0025157Y0052847D01*
X0025352Y0052699D01*
X0025543Y0052546D01*
X0025731Y0052389D01*
X0025915Y0052227D01*
X0026094Y0052061D01*
X0026270Y0051891D01*
X0026441Y0051716D01*
X0026608Y0051537D01*
X0026770Y0051354D01*
X0026928Y0051168D01*
X0027082Y0050977D01*
X0027230Y0050783D01*
X0027374Y0050585D01*
X0027513Y0050383D01*
X0027647Y0050179D01*
X0027776Y0049971D01*
X0027900Y0049760D01*
X0028018Y0049546D01*
X0028132Y0049329D01*
X0028240Y0049109D01*
X0028342Y0048887D01*
X0028439Y0048663D01*
X0028531Y0048436D01*
X0028617Y0048207D01*
X0028617Y0061092D02*
X0028531Y0060863D01*
X0028439Y0060636D01*
X0028342Y0060412D01*
X0028240Y0060190D01*
X0028132Y0059970D01*
X0028018Y0059753D01*
X0027900Y0059539D01*
X0027776Y0059328D01*
X0027647Y0059120D01*
X0027513Y0058916D01*
X0027374Y0058714D01*
X0027230Y0058516D01*
X0027082Y0058322D01*
X0026928Y0058131D01*
X0026770Y0057945D01*
X0026608Y0057762D01*
X0026441Y0057583D01*
X0026270Y0057408D01*
X0026094Y0057238D01*
X0025915Y0057072D01*
X0025731Y0056910D01*
X0025543Y0056753D01*
X0025352Y0056600D01*
X0025157Y0056452D01*
X0024959Y0056310D01*
X0024757Y0056171D01*
X0024551Y0056038D01*
X0024343Y0055910D01*
X0024131Y0055787D01*
X0023917Y0055670D01*
X0023700Y0055557D01*
X0023480Y0055450D01*
X0023257Y0055349D01*
X0023032Y0055253D01*
X0022805Y0055162D01*
X0022575Y0055077D01*
X0022344Y0054998D01*
X0022111Y0054924D01*
X0021876Y0054856D01*
X0021639Y0054794D01*
X0021401Y0054738D01*
X0021162Y0054687D01*
X0020921Y0054642D01*
X0020680Y0054604D01*
X0020437Y0054571D01*
X0020194Y0054544D01*
X0019950Y0054523D01*
X0019706Y0054508D01*
X0019462Y0054499D01*
X0019217Y0054496D01*
X0018972Y0054499D01*
X0018728Y0054508D01*
X0018484Y0054523D01*
X0018240Y0054544D01*
X0017997Y0054571D01*
X0017754Y0054604D01*
X0017513Y0054642D01*
X0017272Y0054687D01*
X0017033Y0054738D01*
X0016795Y0054794D01*
X0016558Y0054856D01*
X0016323Y0054924D01*
X0016090Y0054998D01*
X0015859Y0055077D01*
X0015629Y0055162D01*
X0015402Y0055253D01*
X0015177Y0055349D01*
X0014954Y0055450D01*
X0014734Y0055557D01*
X0014517Y0055670D01*
X0014303Y0055787D01*
X0014091Y0055910D01*
X0013883Y0056038D01*
X0013677Y0056171D01*
X0013475Y0056310D01*
X0013277Y0056452D01*
X0013082Y0056600D01*
X0012891Y0056753D01*
X0012703Y0056910D01*
X0012519Y0057072D01*
X0012340Y0057238D01*
X0012164Y0057408D01*
X0011993Y0057583D01*
X0011826Y0057762D01*
X0011664Y0057945D01*
X0011506Y0058131D01*
X0011352Y0058322D01*
X0011204Y0058516D01*
X0011060Y0058714D01*
X0010921Y0058916D01*
X0010787Y0059120D01*
X0010658Y0059328D01*
X0010534Y0059539D01*
X0010416Y0059753D01*
X0010302Y0059970D01*
X0010194Y0060190D01*
X0010092Y0060412D01*
X0009995Y0060636D01*
X0009903Y0060863D01*
X0009817Y0061092D01*
X0009817Y0067892D02*
X0009903Y0068121D01*
X0009995Y0068348D01*
X0010092Y0068572D01*
X0010194Y0068794D01*
X0010302Y0069014D01*
X0010416Y0069231D01*
X0010534Y0069445D01*
X0010658Y0069656D01*
X0010787Y0069864D01*
X0010921Y0070068D01*
X0011060Y0070270D01*
X0011204Y0070468D01*
X0011352Y0070662D01*
X0011506Y0070853D01*
X0011664Y0071039D01*
X0011826Y0071222D01*
X0011993Y0071401D01*
X0012164Y0071576D01*
X0012340Y0071746D01*
X0012519Y0071912D01*
X0012703Y0072074D01*
X0012891Y0072231D01*
X0013082Y0072384D01*
X0013277Y0072532D01*
X0013475Y0072674D01*
X0013677Y0072813D01*
X0013883Y0072946D01*
X0014091Y0073074D01*
X0014303Y0073197D01*
X0014517Y0073314D01*
X0014734Y0073427D01*
X0014954Y0073534D01*
X0015177Y0073635D01*
X0015402Y0073731D01*
X0015629Y0073822D01*
X0015859Y0073907D01*
X0016090Y0073986D01*
X0016323Y0074060D01*
X0016558Y0074128D01*
X0016795Y0074190D01*
X0017033Y0074246D01*
X0017272Y0074297D01*
X0017513Y0074342D01*
X0017754Y0074380D01*
X0017997Y0074413D01*
X0018240Y0074440D01*
X0018484Y0074461D01*
X0018728Y0074476D01*
X0018972Y0074485D01*
X0019217Y0074488D01*
X0019462Y0074485D01*
X0019706Y0074476D01*
X0019950Y0074461D01*
X0020194Y0074440D01*
X0020437Y0074413D01*
X0020680Y0074380D01*
X0020921Y0074342D01*
X0021162Y0074297D01*
X0021401Y0074246D01*
X0021639Y0074190D01*
X0021876Y0074128D01*
X0022111Y0074060D01*
X0022344Y0073986D01*
X0022575Y0073907D01*
X0022805Y0073822D01*
X0023032Y0073731D01*
X0023257Y0073635D01*
X0023480Y0073534D01*
X0023700Y0073427D01*
X0023917Y0073314D01*
X0024131Y0073197D01*
X0024343Y0073074D01*
X0024551Y0072946D01*
X0024757Y0072813D01*
X0024959Y0072674D01*
X0025157Y0072532D01*
X0025352Y0072384D01*
X0025543Y0072231D01*
X0025731Y0072074D01*
X0025915Y0071912D01*
X0026094Y0071746D01*
X0026270Y0071576D01*
X0026441Y0071401D01*
X0026608Y0071222D01*
X0026770Y0071039D01*
X0026928Y0070853D01*
X0027082Y0070662D01*
X0027230Y0070468D01*
X0027374Y0070270D01*
X0027513Y0070068D01*
X0027647Y0069864D01*
X0027776Y0069656D01*
X0027900Y0069445D01*
X0028018Y0069231D01*
X0028132Y0069014D01*
X0028240Y0068794D01*
X0028342Y0068572D01*
X0028439Y0068348D01*
X0028531Y0068121D01*
X0028617Y0067892D01*
X0028617Y0080777D02*
X0028531Y0080548D01*
X0028439Y0080321D01*
X0028342Y0080097D01*
X0028240Y0079875D01*
X0028132Y0079655D01*
X0028018Y0079438D01*
X0027900Y0079224D01*
X0027776Y0079013D01*
X0027647Y0078805D01*
X0027513Y0078601D01*
X0027374Y0078399D01*
X0027230Y0078201D01*
X0027082Y0078007D01*
X0026928Y0077816D01*
X0026770Y0077630D01*
X0026608Y0077447D01*
X0026441Y0077268D01*
X0026270Y0077093D01*
X0026094Y0076923D01*
X0025915Y0076757D01*
X0025731Y0076595D01*
X0025543Y0076438D01*
X0025352Y0076285D01*
X0025157Y0076137D01*
X0024959Y0075995D01*
X0024757Y0075856D01*
X0024551Y0075723D01*
X0024343Y0075595D01*
X0024131Y0075472D01*
X0023917Y0075355D01*
X0023700Y0075242D01*
X0023480Y0075135D01*
X0023257Y0075034D01*
X0023032Y0074938D01*
X0022805Y0074847D01*
X0022575Y0074762D01*
X0022344Y0074683D01*
X0022111Y0074609D01*
X0021876Y0074541D01*
X0021639Y0074479D01*
X0021401Y0074423D01*
X0021162Y0074372D01*
X0020921Y0074327D01*
X0020680Y0074289D01*
X0020437Y0074256D01*
X0020194Y0074229D01*
X0019950Y0074208D01*
X0019706Y0074193D01*
X0019462Y0074184D01*
X0019217Y0074181D01*
X0018972Y0074184D01*
X0018728Y0074193D01*
X0018484Y0074208D01*
X0018240Y0074229D01*
X0017997Y0074256D01*
X0017754Y0074289D01*
X0017513Y0074327D01*
X0017272Y0074372D01*
X0017033Y0074423D01*
X0016795Y0074479D01*
X0016558Y0074541D01*
X0016323Y0074609D01*
X0016090Y0074683D01*
X0015859Y0074762D01*
X0015629Y0074847D01*
X0015402Y0074938D01*
X0015177Y0075034D01*
X0014954Y0075135D01*
X0014734Y0075242D01*
X0014517Y0075355D01*
X0014303Y0075472D01*
X0014091Y0075595D01*
X0013883Y0075723D01*
X0013677Y0075856D01*
X0013475Y0075995D01*
X0013277Y0076137D01*
X0013082Y0076285D01*
X0012891Y0076438D01*
X0012703Y0076595D01*
X0012519Y0076757D01*
X0012340Y0076923D01*
X0012164Y0077093D01*
X0011993Y0077268D01*
X0011826Y0077447D01*
X0011664Y0077630D01*
X0011506Y0077816D01*
X0011352Y0078007D01*
X0011204Y0078201D01*
X0011060Y0078399D01*
X0010921Y0078601D01*
X0010787Y0078805D01*
X0010658Y0079013D01*
X0010534Y0079224D01*
X0010416Y0079438D01*
X0010302Y0079655D01*
X0010194Y0079875D01*
X0010092Y0080097D01*
X0009995Y0080321D01*
X0009903Y0080548D01*
X0009817Y0080777D01*
X0009817Y0087577D02*
X0009903Y0087806D01*
X0009995Y0088033D01*
X0010092Y0088257D01*
X0010194Y0088479D01*
X0010302Y0088699D01*
X0010416Y0088916D01*
X0010534Y0089130D01*
X0010658Y0089341D01*
X0010787Y0089549D01*
X0010921Y0089753D01*
X0011060Y0089955D01*
X0011204Y0090153D01*
X0011352Y0090347D01*
X0011506Y0090538D01*
X0011664Y0090724D01*
X0011826Y0090907D01*
X0011993Y0091086D01*
X0012164Y0091261D01*
X0012340Y0091431D01*
X0012519Y0091597D01*
X0012703Y0091759D01*
X0012891Y0091916D01*
X0013082Y0092069D01*
X0013277Y0092217D01*
X0013475Y0092359D01*
X0013677Y0092498D01*
X0013883Y0092631D01*
X0014091Y0092759D01*
X0014303Y0092882D01*
X0014517Y0092999D01*
X0014734Y0093112D01*
X0014954Y0093219D01*
X0015177Y0093320D01*
X0015402Y0093416D01*
X0015629Y0093507D01*
X0015859Y0093592D01*
X0016090Y0093671D01*
X0016323Y0093745D01*
X0016558Y0093813D01*
X0016795Y0093875D01*
X0017033Y0093931D01*
X0017272Y0093982D01*
X0017513Y0094027D01*
X0017754Y0094065D01*
X0017997Y0094098D01*
X0018240Y0094125D01*
X0018484Y0094146D01*
X0018728Y0094161D01*
X0018972Y0094170D01*
X0019217Y0094173D01*
X0019462Y0094170D01*
X0019706Y0094161D01*
X0019950Y0094146D01*
X0020194Y0094125D01*
X0020437Y0094098D01*
X0020680Y0094065D01*
X0020921Y0094027D01*
X0021162Y0093982D01*
X0021401Y0093931D01*
X0021639Y0093875D01*
X0021876Y0093813D01*
X0022111Y0093745D01*
X0022344Y0093671D01*
X0022575Y0093592D01*
X0022805Y0093507D01*
X0023032Y0093416D01*
X0023257Y0093320D01*
X0023480Y0093219D01*
X0023700Y0093112D01*
X0023917Y0092999D01*
X0024131Y0092882D01*
X0024343Y0092759D01*
X0024551Y0092631D01*
X0024757Y0092498D01*
X0024959Y0092359D01*
X0025157Y0092217D01*
X0025352Y0092069D01*
X0025543Y0091916D01*
X0025731Y0091759D01*
X0025915Y0091597D01*
X0026094Y0091431D01*
X0026270Y0091261D01*
X0026441Y0091086D01*
X0026608Y0090907D01*
X0026770Y0090724D01*
X0026928Y0090538D01*
X0027082Y0090347D01*
X0027230Y0090153D01*
X0027374Y0089955D01*
X0027513Y0089753D01*
X0027647Y0089549D01*
X0027776Y0089341D01*
X0027900Y0089130D01*
X0028018Y0088916D01*
X0028132Y0088699D01*
X0028240Y0088479D01*
X0028342Y0088257D01*
X0028439Y0088033D01*
X0028531Y0087806D01*
X0028617Y0087577D01*
D14*
X0035949Y0080043D02*
X0035949Y0064492D01*
X0037917Y0064492D01*
X0037917Y0056618D01*
X0035949Y0056618D01*
X0035949Y0041067D01*
X0053665Y0041067D01*
X0053665Y0080043D01*
X0035949Y0080043D01*
X0035949Y0040673D02*
X0035949Y0025122D01*
X0037917Y0025122D01*
X0037917Y0017248D01*
X0035949Y0017248D01*
X0035949Y0001697D01*
X0053665Y0001697D01*
X0053665Y0040673D01*
X0035949Y0040673D01*
M02*
