%
M48
M72
T01C0.02756
T02C0.03200
T03C0.08661
%
T01
X42642Y9374
X42642Y17248
X42642Y25122
X42642Y32996
X42642Y48744
X42642Y56618
X42642Y64492
X42642Y72366
X42839Y92051
X42839Y99925
T02
X9217Y25122
X19217Y25122
X29217Y25122
X29217Y44807
X19217Y44807
X9217Y44807
X9217Y64492
X19217Y64492
X29217Y64492
X29217Y84177
X19217Y84177
X9217Y84177
T03
X19217Y99925
X19217Y9374
M30
