%
M48
M72
T01C0.02756
T02C0.03200
T03C0.08661
%
T01
X40870Y9374
X40870Y17248
X40870Y25122
X40870Y32996
X40870Y48744
X40870Y56618
X40870Y64492
X40870Y72366
X40870Y92051
X40870Y99925
T02
X9217Y25122
X19217Y25122
X29217Y25122
X29217Y44807
X19217Y44807
X9217Y44807
X9217Y64492
X19217Y64492
X29217Y64492
X29217Y84177
X19217Y84177
X9217Y84177
T03
X19217Y99925
X19217Y9374
M30
